<?xml version="1.0" encoding="UTF-8" standalone="no"?>
<svg
   version="1.0"
   width="150pt"
   height="150pt"
   viewBox="0 0 150 150"
   preserveAspectRatio="xMidYMid"
   id="svg261"
   sodipodi:docname="logo.svg"
   inkscape:version="1.3.2 (091e20e, 2023-11-25, custom)"
   xmlns:inkscape="http://www.inkscape.org/namespaces/inkscape"
   xmlns:sodipodi="http://sodipodi.sourceforge.net/DTD/sodipodi-0.dtd"
   xmlns="http://www.w3.org/2000/svg"
   xmlns:svg="http://www.w3.org/2000/svg">
  <defs
     id="defs261">
    <rect
       x="315.89407"
       y="351.11765"
       width="154.31287"
       height="26.837019"
       id="rect261" />
  </defs>
  <sodipodi:namedview
     id="namedview261"
     pagecolor="#ffffff"
     bordercolor="#000000"
     borderopacity="0.25"
     inkscape:showpageshadow="2"
     inkscape:pageopacity="0.0"
     inkscape:pagecheckerboard="0"
     inkscape:deskcolor="#d1d1d1"
     inkscape:document-units="pt"
     inkscape:zoom="1.7885742"
     inkscape:cx="341.33333"
     inkscape:cy="226.15779"
     inkscape:window-width="2560"
     inkscape:window-height="1417"
     inkscape:window-x="-8"
     inkscape:window-y="-8"
     inkscape:window-maximized="1"
     inkscape:current-layer="g261" />
  <metadata
     id="metadata1">
Created by potrace 1.16, written by Peter Selinger 2001-2019
</metadata>
  <g
     transform="matrix(0.1,0,0,-0.1,0,512)"
     fill="#000000"
     stroke="none"
     id="g261">
    <path
       d="m 1249.131,4638.3106 c -13.0152,-3.5904 -30.5185,-11.6688 -38.5969,-17.952 -9.8736,-7.6297 -17.5032,-9.8737 -24.6841,-8.0785 -10.3224,2.6928 -10.3224,2.244 -3.1416,-11.22 19.2985,-37.6993 66.4226,-50.7145 92.4531,-25.5817 14.8104,14.3617 24.2353,38.5969 21.5425,56.1002 -1.7953,13.9128 -14.3617,15.708 -47.573,6.732 z m 33.6601,-25.1329 c -6.2832,-24.684 -22.8888,-39.9433 -43.5337,-39.9433 -9.4248,0 -19.2985,3.1416 -22.4401,6.732 -4.9368,5.8345 -4.488,6.7321 0.4488,4.9369 3.5904,-1.3464 13.0153,-0.8976 21.0937,0.8976 11.6688,2.244 17.952,8.0784 26.4793,22.44 13.464,22.4401 6.2832,26.0305 -7.1809,3.5904 -6.732,-10.7712 -13.9128,-16.1568 -24.684,-17.952 -14.8105,-2.6928 -29.6209,0 -29.6209,5.8344 0.4488,10.3224 48.9193,30.9673 72.257,30.5185 11.22,0 11.6688,-0.4488 7.1808,-17.0545 z"
       id="path85"
       style="stroke-width:0.448801" />
    <path
       d="m 472.69451,4905.7002 c 0,-6 102,-10 285,-10 183,0 284.99999,4 284.99999,10 0,6 -101.99999,10 -284.99999,10 -183,0 -285,-4 -285,-10 z"
       id="path110" />
    <path
       d="m 196.69451,4556.986 c -41,-16 -64,-59 -64,-117 0,-47 4,-59 29,-84 21,-21 39,-29 63,-29 42,0 71,20 63,42 -5,13 -12,15 -32,7 -52,-20 -93,35 -73,97 12,36 42,51 81,41 28,-7 38,22 14,39 -21,16 -50,17 -81,4 z"
       id="path138" />
    <path
       d="m 1275.6945,4546.986 c -42,-25 -53,-48 -53,-110 0,-44 4,-56 30,-82 28,-27 36,-30 75,-25 63,7 77,21 73,76 l -3,46 -42,3 c -38,3 -43,1 -43,-17 0,-14 6,-21 20,-21 13,0 20,-7 20,-19 0,-26 -15,-34 -45,-27 -34,9 -53,72 -33,112 11,25 19,29 56,30 55,1 72,16 41,38 -31,21 -57,20 -96,-4 z"
       id="path141" />
    <path
       d="m 782.69451,4446.986 c 0,-103 1,-110 20,-110 16,0 20,7 20,38 v 37 l 36,-42 c 33,-39 61,-53 77,-37 3,4 -12,28 -33,53 -22,26 -40,51 -40,55 0,4 16,28 35,53 19,25 35,50 35,54 0,23 -38,5 -72,-33 l -37,-43 -1,43 c 0,35 -3,42 -20,42 -19,0 -20,-7 -20,-110 z"
       id="path142" />
    <path
       d="m 1042.6945,4447.986 c 0,-61 2,-111 4,-111 2,0 11,-3 20,-6 14,-5 16,4 16,62 l 1,69 32,-60 c 22,-42 39,-61 55,-63 22,-3 22,-2 22,107 0,104 -1,111 -20,111 -18,0 -20,-7 -21,-67 v -68 l -32,65 c -23,48 -38,66 -54,68 -23,3 -23,2 -23,-107 z"
       id="path144" />
    <path
       d="m 334.11711,4812.0761 c -4.8531,-1.6177 -10.5151,-6.0664 -13.3461,-9.3018 -2.831,-3.2354 -8.493,-5.2576 -12.1328,-4.0443 -8.8974,2.0221 -20.2214,-9.7063 -24.6701,-25.479 -4.8532,-18.1992 2.0221,-36.3985 19.8169,-50.5534 10.5152,-8.493 16.1772,-16.5816 16.1772,-22.648 0,-13.3461 10.5151,-11.7284 15.3682,2.4266 2.4266,6.4708 11.7284,16.5815 21.4347,23.0524 23.8612,16.1771 27.0967,27.0966 17.7948,58.2376 -9.3018,30.3321 -19.0081,37.2073 -40.4428,28.3099 z m 14.9639,-13.3461 c -3.6399,-4.8531 -9.7063,-23.0524 -14.9639,-45.2959 -2.831,-10.9196 -3.2354,-11.324 -6.0664,-4.0443 -2.0221,4.4487 -3.6398,16.5815 -3.6398,27.0967 -0.4045,16.9859 0.8088,19.8169 10.5151,25.0745 12.1328,6.0664 20.2214,4.4487 14.155,-2.831 z m 15.3682,-14.9638 c -0.4044,-3.2355 -5.662,-13.3461 -12.5372,-22.2436 -13.7506,-17.3904 -13.7506,-14.1549 -0.8089,21.4347 6.0664,16.5816 13.3461,16.986 13.3461,0.8089 z m -45.7003,-28.31 c 4.4487,-17.7948 6.8752,-33.1631 5.2575,-34.3764 -1.6177,-0.8088 -8.8974,4.4488 -16.1771,12.1329 -10.1107,10.5151 -13.7505,17.7948 -13.7505,27.9055 0,12.9417 6.8752,26.6923 13.7505,26.6923 1.6177,0 6.4709,-14.5595 10.9196,-32.3543 z m 40.0383,-15.3682 c -14.5594,-14.5594 -16.1771,-9.7063 -3.2354,9.7062 8.8974,13.7506 11.324,15.3683 12.1328,8.493 0.8089,-4.4487 -2.8309,-12.5373 -8.8974,-18.1992 z"
       id="path171"
       style="stroke-width:0.404428" />
    <path
       d="m 492.69451,3863.7002 c 0,-8 29,-10 210,-15 154,-3 349.99999,7 349.99999,19 0,7 -92.99999,9 -279.99999,7 -154,-2 -280,-7 -280,-11 z"
       id="path180" />
    <path
       d="m 956.50461,4813.5482 c -4.0312,-8.1988 -13.6054,-73.2038 -13.6054,-94.2866 0,-14.6408 4.0312,-24.0108 15.1171,-35.1379 l 15.1171,-15.2264 v -89.0159 c 0,-83.7453 -1.0078,-90.7728 -12.5976,-117.7119 -9.0702,-20.4971 -13.6054,-41.5798 -15.621,-77.889 -4.0312,-61.4912 1.0078,-70.2757 37.7928,-70.2757 36.78489,0 43.33559,11.127 39.30439,70.8614 -2.0156,29.8672 -7.0546,57.3919 -13.6054,73.2039 -9.57409,22.254 -11.08589,37.4804 -11.58979,118.2975 l -1.0078,93.1154 17.13269,16.3976 c 16.6289,16.3977 16.6289,17.569 13.6054,50.3643 -4.0312,45.6793 -16.6288,81.4028 -28.72249,81.4028 -5.039,0 -9.5741,-3.5138 -9.5741,-7.0276 0,-5.8563 -1.5117,-5.2707 -4.5351,0.5856 -3.5274,6.442 -4.5352,6.442 -7.0547,0 -2.0156,-5.8563 -3.0234,-5.8563 -3.0234,-0.5856 -0.5039,7.6132 -13.6054,9.9558 -17.1327,2.9281 z m 49.88639,-73.2038 c 2.0156,-24.5966 1.5117,-39.823 -1.5117,-39.823 -5.03899,0 -12.09369,56.2207 -11.08589,93.1154 l 0.5039,21.0827 4.0313,-16.9833 c 2.51949,-9.3701 6.04679,-35.1379 8.06239,-57.3918 z m -18.64439,-9.9557 c 1.0078,-53.8782 -2.5195,-42.1655 -6.0469,19.9114 -1.5117,30.4528 -1.0078,45.0936 1.5118,35.1379 2.0156,-9.3702 4.0312,-34.5523 4.5351,-55.0493 z m -15.1171,2.9281 c 0.5039,-48.6074 -2.5195,-39.2374 -6.0468,16.9833 -1.5118,28.1103 -1.0079,40.9942 1.5117,32.2097 2.0156,-8.1988 4.0312,-30.4528 4.5351,-49.193 z m 28.72249,-296.3294 c 3.5273,-11.127 7.5585,-36.3092 9.5741,-56.2206 2.5195,-29.2816 2.0156,-37.4804 -5.039,-45.0936 -10.58199,-12.2983 -39.30439,-12.8839 -47.87079,-1.1713 -7.0546,9.9557 -4.0312,64.4194 5.5429,104.2424 4.5352,19.3258 7.0547,22.2539 18.6444,20.497 10.582,-1.1712 15.1171,-6.4419 19.14839,-22.2539 z"
       id="path182"
       style="stroke-width:0.543233" />
    <path
       d="m 402.31711,4559.9259 c -2.3625,-7.179 -5.7374,-10.5573 -11.4751,-10.5573 -15.1875,0 -42.525,-13.9355 -56.7001,-29.1378 -9.7876,-10.5573 -16.5375,-14.7802 -22.95,-13.9356 -11.1375,1.6891 -17.5501,-7.6012 -16.2001,-23.226 0.675,-9.7126 3.7125,-12.6686 16.2001,-18.1584 l 15.1875,-6.7566 2.025,-27.0265 c 2.3625,-33.3608 10.4625,-56.1644 25.3126,-70.1 6.075,-5.912 11.4749,-14.78 12.15,-19.8475 3.0375,-27.4488 124.2004,-24.0705 124.2004,3.3782 0,3.8007 4.725,14.3579 10.4625,23.2259 8.775,13.9355 11.1375,21.9591 14.175,52.3639 l 3.3751,35.4723 14.5125,4.6451 c 17.2126,5.4898 24.9751,14.3579 24.9751,27.8711 0,12.6687 -10.8001,20.6922 -23.2876,17.7361 -7.0875,-2.1114 -11.1376,0.4224 -18.225,9.7127 -9.7875,12.6687 -37.4627,27.8711 -59.7377,32.094 -7.425,1.6891 -12.4876,4.6452 -11.4751,6.7566 4.3876,8.4458 -6.4125,16.047 -22.6125,16.047 -14.8501,0 -17.2126,-1.2668 -19.9126,-10.5572 z m 64.1252,-36.3169 c 29.3625,-16.4692 32.4001,-29.9825 9.45,-42.2289 -27,-14.3578 -104.6253,-2.956 -119.4753,17.7361 -6.4126,8.8681 -4.3875,14.3578 9.1125,23.226 24.9751,16.0469 72.9002,16.4692 100.9128,1.2668 z m -138.3754,-40.1174 8.4375,-6.3344 -8.4375,2.9561 c -4.725,1.2668 -9.7876,4.2228 -11.475,6.3343 -5.4,5.912 2.025,4.2228 11.475,-2.956 z m 209.2505,2.956 c 0,-5.4898 -43.875,-24.915 -69.5251,-30.4048 -28.0125,-5.9121 -80.6628,-2.5338 -105.3003,6.7566 -10.125,3.8006 -17.55,7.6012 -16.8751,8.4458 0.675,0.8445 8.7751,-0.8446 17.8876,-4.2229 42.5251,-16.047 119.1379,-10.135 152.8879,11.8241 18.225,11.824 20.925,12.6686 20.925,7.6012 z m -111.3752,-47.7186 c 32.0625,0 55.6876,3.8005 72.2252,11.824 5.7375,2.5337 6.075,0.4223 4.725,-29.9825 -1.0125,-30.4048 -2.0249,-33.3609 -11.8125,-44.7626 -6.075,-6.3344 -17.5501,-13.9356 -25.3127,-16.8916 -19.2374,-6.3344 -58.7251,-6.3344 -74.2501,0 -18.225,7.6012 -34.0876,32.9386 -42.1876,67.1439 l -6.4125,28.7156 23.6251,-8.0234 c 15.8625,-5.0675 36.1125,-7.6012 59.4001,-8.0234 z m 33.4126,-100.9272 c -10.8001,-3.8006 -60.4127,-3.8006 -67.8377,-0.4223 -3.375,1.6892 12.4875,2.956 35.1001,2.956 22.2751,0 37.1251,-1.2668 32.7376,-2.5337 z"
       id="path189"
       style="stroke-width:0.377522" />
    <path
       d="m 468.46731,4494.0488 c -7.0875,-2.1115 -25.3126,-5.4898 -40.5001,-7.6012 l -27.3377,-3.3784 28.6877,-0.8445 c 28.6875,-0.4223 51.9752,4.6451 55.6877,12.2464 2.3625,4.6451 1.35,4.6451 -16.5376,-0.4223 z"
       id="path190"
       style="stroke-width:0.377522" />
    <path
       d="m 428.64211,4423.9488 c -11.1374,-0.8446 -19.575,-3.8006 -19.575,-6.3344 0,-5.4897 44.5502,-1.6891 57.7127,4.6452 7.0875,3.8006 6.4125,4.2229 -5.4,3.3784 -7.4251,0 -22.2751,-0.8446 -32.7377,-1.6892 z"
       id="path191"
       style="stroke-width:0.377522" />
    <path
       d="m 201.86921,4706.5204 c -16.5815,-9.7062 -4.8531,-27.5011 24.6701,-38.0162 21.0303,-7.2797 20.6258,-7.2797 20.6258,-1.6177 0,10.9196 -14.155,32.7587 -24.6701,38.0162 -13.3461,6.8753 -11.7284,6.8753 -20.6258,1.6177 z m 21.0302,-17.7948 c 5.662,-6.4708 4.0443,-7.2797 -5.6619,-3.6398 -3.6399,1.2132 -6.4709,4.0442 -6.4709,6.0664 0,5.662 6.4709,4.4487 12.1328,-2.4266 z"
       id="path192"
       style="stroke-width:0.404428" />
    <path
       d="m 276.68841,4649.4961 c -12.5373,-6.0664 -26.2879,-36.8029 -21.8391,-48.5314 7.2797,-18.1992 22.2435,-27.9055 51.3623,-31.9498 18.6037,-2.4265 30.7365,-6.4708 36.8029,-12.5372 14.155,-13.3461 16.1772,-4.8532 4.0443,16.9859 -6.8753,12.5373 -10.9195,25.479 -10.9195,36.3986 0,13.7505 -2.4266,19.4125 -13.7506,30.7365 -14.5594,14.5594 -28.3099,17.3904 -45.7003,8.8974 z m 34.7808,-13.7505 c 14.5594,-12.1329 17.3904,-29.9277 4.8531,-29.9277 -9.3018,0 -13.7505,9.3018 -7.2797,15.7727 3.6398,3.6398 3.2354,4.4487 -2.0221,2.4265 -4.4487,-1.6177 -8.493,0.4045 -12.1329,5.662 -2.831,4.8532 -6.4708,8.493 -8.0885,8.493 -6.4709,0 -2.831,-12.1328 8.0885,-24.6701 l 10.9196,-13.7505 -15.3683,9.3018 c -9.3018,5.2576 -14.9638,6.8753 -14.155,4.0443 0.8089,-2.831 9.3019,-8.8974 18.6037,-13.3461 9.3019,-4.4487 16.5816,-9.3019 16.986,-10.9196 0,-5.662 -22.2435,-3.2354 -31.5454,3.2354 -9.3018,6.4709 -21.8391,25.479 -13.3461,20.2214 2.831,-2.0221 4.4487,0.8089 4.4487,6.4709 0,11.324 3.6399,16.5815 14.155,22.6479 11.324,6.4709 12.1328,6.0665 25.8834,-5.6619 z"
       id="path197"
       style="stroke-width:0.404428" />
    <path
       d="m 585.50551,4558.8632 c -9.2983,-9.5495 -5.3832,-21.303 8.8088,-26.0778 22.022,-7.3459 23.0009,-44.0753 1.9576,-77.8663 -8.809,-14.3244 -16.1496,-33.0564 -17.6177,-45.5443 -2.9363,-25.3433 9.7876,-80.4375 20.5538,-88.5179 9.7877,-7.3459 84.6629,-10.2842 114.0256,-4.0402 29.3628,5.8767 32.299,13.2226 28.384,73.4587 -2.9362,43.708 -4.8938,52.1557 -17.1283,71.6223 -11.7451,19.0993 -13.2132,25.7106 -11.2557,44.0753 1.4682,15.059 4.8937,24.2414 11.2557,28.6488 10.7663,7.346 12.2345,20.9359 3.4256,27.5471 -3.915,2.9384 -26.9159,4.4075 -70.4706,4.4075 -60.1937,0 -65.5768,-0.7346 -71.9388,-7.7132 z m 114.0255,-45.1771 v -15.7936 l -29.8523,-2.5711 c -50.8953,-3.6729 -48.4484,-4.4075 -48.4484,16.161 v 18.3646 h 39.1503 39.1504 z m 12.7238,-53.2576 c 6.362,-10.6514 11.7451,-20.5684 11.7451,-21.6703 0,-1.4692 -24.9584,-2.571 -54.8105,-2.571 h -55.2999 l -1.4682,-30.1182 c -1.4682,-27.1797 -2.4469,-30.4853 -10.7662,-30.4853 -22.0221,0 -18.5965,40.035 7.3406,78.9682 l 17.1283,25.7105 -2.4469,-15.7936 c -1.9576,-10.2842 -0.9787,-15.0591 2.4469,-13.5899 2.4469,1.1019 4.8938,7.7132 4.8938,14.6918 0,14.3244 0.9787,14.6917 39.6398,14.3244 l 29.3627,-0.3673 z m 13.7026,-45.1771 c 4.8939,-28.2817 5.3832,-39.3005 1.9575,-39.6677 -2.4468,0 -26.9159,0 -55.2998,0 h -51.3848 v 25.3432 c 0,16.8956 1.9574,26.0779 6.3619,27.1798 2.9363,1.1019 25.9371,2.2037 50.8955,2.2037 l 45.0228,0.3673 z"
       id="path214"
       style="stroke-width:0.423964" />
    <path
       d="m 643.74171,4512.2169 c -1.4681,-2.2037 -0.4894,-5.1421 2.4468,-6.2439 7.3408,-3.673 12.2345,1.1018 5.8726,5.8766 -3.4256,2.5711 -6.3619,2.5711 -8.3194,0.3673 z"
       id="path215"
       style="stroke-width:0.423964" />
    <path
       d="m 660.38061,4462.265 c 0,-3.3056 3.4256,-5.8767 7.8301,-5.8767 8.3194,0 6.8512,8.0805 -1.9576,10.2842 -3.4256,0.7347 -5.8725,-1.1018 -5.8725,-4.4075 z"
       id="path216"
       style="stroke-width:0.423964" />
  </g>
  <text
     xml:space="preserve"
     transform="matrix(0.75,0,0,0.75,-211.76085,-176.11794)"
     id="text261"
     style="font-size:13.3333px;font-family:'Cascadia Mono';-inkscape-font-specification:'Cascadia Mono, @wght=700';font-variation-settings:'wght' 700;white-space:pre;shape-inside:url(#rect261);fill:#000000"><tspan
       x="315.89453"
       y="363.42808"
       id="tspan1">.yliuchristina.com</tspan></text>
</svg>
