<?xml version="1.0" encoding="UTF-8" standalone="no"?>
<svg
   version="1.0"
   width="100pt"
   height="100pt"
   viewBox="0 0 100 100"
   preserveAspectRatio="xMidYMid"
   id="svg261"
   sodipodi:docname="logo.svg"
   inkscape:version="1.3.2 (091e20e, 2023-11-25, custom)"
   xmlns:inkscape="http://www.inkscape.org/namespaces/inkscape"
   xmlns:sodipodi="http://sodipodi.sourceforge.net/DTD/sodipodi-0.dtd"
   xmlns="http://www.w3.org/2000/svg"
   xmlns:svg="http://www.w3.org/2000/svg">
  <defs
     id="defs261">
    <rect
       x="315.89407"
       y="351.11765"
       width="154.31287"
       height="26.837019"
       id="rect261" />
  </defs>
  <sodipodi:namedview
     id="namedview261"
     pagecolor="#ffffff"
     bordercolor="#000000"
     borderopacity="0.25"
     inkscape:showpageshadow="2"
     inkscape:pageopacity="0.0"
     inkscape:pagecheckerboard="0"
     inkscape:deskcolor="#d1d1d1"
     inkscape:document-units="pt"
     inkscape:zoom="1.7885742"
     inkscape:cx="341.89244"
     inkscape:cy="226.1578"
     inkscape:window-width="2560"
     inkscape:window-height="1417"
     inkscape:window-x="-8"
     inkscape:window-y="-8"
     inkscape:window-maximized="1"
     inkscape:current-layer="g261" />
  <metadata
     id="metadata1">
Created by potrace 1.16, written by Peter Selinger 2001-2019
</metadata>
  <g
     transform="matrix(0.1,0,0,-0.1,0,512)"
     fill="#000000"
     stroke="none"
     id="g261">
    <path
       d="m 414.25272,5022.1896 c -8.70682,-26.4576 -21.14476,-38.9081 -42.29061,-38.9081 -55.9724,0 -156.7227,-51.3583 -208.96397,-107.3851 -36.07146,-38.9081 -60.9477,-54.4714 -84.580484,-51.3587 -41.046412,6.2251 -64.679571,-28.0135 -59.704244,-85.5976 2.487664,-35.795 13.682127,-46.6892 59.704244,-66.9215 l 55.972394,-24.9009 7.46298,-99.6042 c 8.70681,-122.9487 38.55876,-206.9896 93.28768,-258.3482 22.38896,-21.7882 42.28987,-54.4706 44.77791,-73.1465 11.19448,-101.1604 457.73124,-88.71 457.73124,12.4502 0,14.0072 17.41363,52.915 38.55875,85.5973 32.33959,51.3581 41.04641,80.9286 52.24089,192.9831 l 12.43868,130.7305 53.48473,17.1193 c 63.43573,20.2321 92.04384,52.9149 92.04384,102.7167 0,46.6895 -39.80295,76.2597 -85.82469,65.3652 -26.12045,-7.7815 -41.04679,1.5566 -67.16687,35.7953 -36.07109,46.6896 -138.06596,102.7169 -220.15879,118.28 -27.36428,6.2251 -46.02212,17.1196 -42.29063,24.9011 16.17019,31.1263 -23.63278,59.1399 -83.33666,59.1399 -54.72892,0 -63.43574,-4.6686 -73.38639,-38.9078 z m 236.32861,-133.8432 c 108.21327,-60.6959 119.40812,-110.4982 34.82726,-155.6314 -99.50647,-52.9146 -385.58867,-10.8941 -440.31723,65.365 -23.63316,32.6828 -16.1698,52.9147 33.58342,85.5978 92.04386,59.1396 268.66821,60.6959 371.90655,4.6686 z m -509.97213,-147.8496 31.09578,-23.345 -31.09578,10.8945 c -17.41363,4.6687 -36.07146,15.5629 -42.290249,23.3447 -19.901295,21.7881 7.462989,15.5627 42.290249,-10.8942 z m 771.17696,10.8942 c 0,-20.2323 -161.698,-91.8224 -256.22952,-112.0547 -103.23796,-21.7885 -297.27668,-9.3382 -388.07634,24.901 -37.31492,14.0067 -64.67919,28.0136 -62.1919,31.1263 2.48766,3.1124 32.33997,-3.1127 65.92341,-15.5632 156.72305,-59.1399 439.07376,-37.3518 563.45684,43.5768 67.16687,43.5765 77.11751,46.6892 77.11751,28.0138 z M 501.32125,4575.5276 c 118.16393,0 205.23246,14.0064 266.18054,43.5765 21.14512,9.3377 22.38896,1.5564 17.41363,-110.4983 -3.73149,-112.0546 -7.46261,-122.9491 -43.53408,-164.9692 -22.38895,-23.3449 -64.67957,-51.3586 -93.28805,-62.2526 -70.89799,-23.3451 -216.42694,-23.3451 -273.64316,0 -67.16686,28.0136 -125.62728,121.3926 -155.47921,247.4537 l -23.6328,105.8292 87.06853,-29.5697 c 58.46006,-18.6759 133.08991,-28.0136 218.9146,-29.5696 z m 123.13963,-371.9597 c -39.80297,-14.0067 -222.64646,-14.0067 -250.01075,-1.5563 -12.4383,6.2254 46.02174,10.8942 129.35878,10.8942 82.09321,0 136.82176,-4.6688 120.65197,-9.3379 z"
       id="path189"
       style="stroke-width:1.39133" />
    <path
       d="m 658.0443,4779.4046 c -26.12044,-7.7818 -93.28768,-20.2323 -149.26006,-28.0136 l -100.75103,-12.4509 105.72634,-3.1124 c 105.72563,-1.5563 191.55069,17.1191 205.23284,45.1332 8.70681,17.1191 4.97532,17.1191 -60.94809,-1.5563 z"
       id="path190"
       style="stroke-width:1.39133" />
    <path
       d="m 511.27153,4521.0563 c -41.04605,-3.1127 -72.14219,-14.0069 -72.14219,-23.345 0,-20.2318 164.18641,-6.225 212.69581,17.1196 26.12045,14.0068 23.63278,15.5632 -19.90129,12.4508 -27.36465,0 -82.09321,-3.1127 -120.65233,-6.2254 z"
       id="path191"
       style="stroke-width:1.39133" />
  </g>
</svg>
