<?xml version="1.0" standalone="no"?>
<!DOCTYPE svg PUBLIC "-//W3C//DTD SVG 20010904//EN"
 "http://www.w3.org/TR/2001/REC-SVG-20010904/DTD/svg10.dtd">
<svg version="1.0" xmlns="http://www.w3.org/2000/svg"
 width="512.000000pt" height="512.000000pt" viewBox="0 0 512.000000 512.000000"
 preserveAspectRatio="xMidYMid meet">
<metadata>
Created by potrace 1.16, written by Peter Selinger 2001-2019
</metadata>
<g transform="translate(0.000000,512.000000) scale(0.100000,-0.100000)"
fill="#000000" stroke="none">
<path d="M1250 5110 c0 -5 4 -10 9 -10 6 0 13 5 16 10 3 6 -1 10 -9 10 -9 0
-16 -4 -16 -10z"/>
<path d="M2176 5089 c-15 -75 -5 -111 43 -162 38 -42 73 -57 131 -57 108 0
200 85 200 185 0 58 -7 65 -66 65 -33 0 -54 -4 -54 -11 0 -8 -4 -8 -14 1 -8 6
-24 10 -36 8 -19 -3 -20 -4 -5 -25 9 -13 26 -23 37 -23 12 0 33 10 46 23 l25
22 -12 -22 c-6 -12 -19 -27 -29 -32 -14 -8 -15 -14 -5 -40 6 -17 7 -31 3 -31
-5 0 -11 8 -14 18 -10 30 -62 22 -90 -13 -21 -26 -27 -28 -51 -20 -15 6 -35
21 -43 35 l-16 25 26 -23 c29 -27 71 -27 76 0 2 10 -5 18 -20 22 -13 2 5 4 40
2 73 -3 82 17 9 22 -36 2 -52 10 -74 33 -29 30 -58 38 -66 17 -4 -10 -6 -10
-6 0 -2 25 -29 11 -35 -19z m341 -11 c-3 -7 -5 -2 -5 12 0 14 2 19 5 13 2 -7
2 -19 0 -25z m-252 -26 c-8 -8 -25 10 -25 26 0 13 2 13 14 -4 8 -10 13 -21 11
-22z m-58 -9 c-3 -10 -5 -4 -5 12 0 17 2 24 5 18 2 -7 2 -21 0 -30z m310 -5
c-3 -8 -6 -5 -6 6 -1 11 2 17 5 13 3 -3 4 -12 1 -19z m-37 -3 c-7 -8 -18 -15
-24 -15 -6 0 -2 7 8 15 25 19 32 19 16 0z m21 -38 c-10 -9 -11 -8 -5 6 3 10 9
15 12 12 3 -3 0 -11 -7 -18z m-188 -52 c25 0 43 -3 40 -7 -12 -20 -74 -7 -108
23 -19 17 -35 35 -35 40 0 5 13 -5 29 -23 24 -27 36 -32 74 -33z m177 32 c0
-2 -10 -12 -22 -23 l-23 -19 19 23 c18 21 26 27 26 19z m-85 -57 c-3 -5 -12
-10 -18 -10 -7 0 -6 4 3 10 19 12 23 12 15 0z"/>
<path d="M2305 5095 c17 -14 41 -25 54 -25 l24 0 -23 25 c-15 16 -34 25 -54
25 l-31 -1 30 -24z"/>
<path d="M2911 5075 c-8 -33 -9 -57 -1 -84 21 -79 103 -161 177 -176 127 -26
287 144 258 275 -5 25 -12 30 -34 30 -26 0 -29 -4 -34 -45 -10 -91 -103 -196
-186 -210 -58 -10 -102 20 -137 91 -26 54 -29 97 -9 147 5 11 2 17 -8 17 -9 0
-19 -17 -26 -45z m400 -66 c-21 -70 -133 -171 -188 -168 -10 0 1 7 24 15 84
30 160 132 164 219 l2 40 4 -35 c3 -19 0 -51 -6 -71z"/>
<path d="M3111 5034 c-108 -108 -82 -112 32 -5 37 35 75 92 60 90 -5 -1 -46
-39 -92 -85z"/>
<path d="M3535 4995 c-47 -68 -113 -168 -147 -222 -56 -88 -60 -99 -50 -125 9
-25 7 -35 -19 -72 -25 -38 -35 -45 -74 -50 -57 -9 -95 -41 -129 -108 -15 -29
-33 -64 -41 -78 -20 -35 -19 -66 5 -90 29 -29 51 -25 122 23 77 53 116 112
125 188 7 63 37 129 58 129 9 0 77 92 153 205 182 273 179 267 164 299 -9 21
-19 26 -46 26 -34 0 -39 -6 -121 -125z m143 79 c2 -12 -16 -46 -44 -85 -39
-52 -135 -199 -200 -305 -10 -15 -16 -17 -30 -8 -11 6 -20 18 -22 27 -3 14
203 332 246 380 20 23 46 18 50 -9z m-472 -608 c-20 -18 -42 -48 -50 -67 -18
-40 -21 -17 -5 30 7 18 26 41 43 52 47 29 52 23 12 -15z m100 9 c10 -25 -41
-120 -80 -150 -90 -69 -88 46 3 128 43 39 68 46 77 22z m-176 -180 c15 -18 5
-35 -20 -35 -10 0 -22 5 -25 10 -7 11 12 40 25 40 4 0 13 -7 20 -15z"/>
<path d="M4143 5063 c-88 -103 -93 -114 -93 -191 0 -67 -2 -72 -45 -131 -25
-34 -88 -111 -140 -171 -56 -65 -95 -119 -95 -131 0 -20 -1 -21 -22 -5 -66 48
-116 42 -190 -23 -66 -59 -108 -144 -108 -221 0 -65 -8 -87 -47 -134 -31 -38
-27 -76 10 -94 40 -19 61 -8 103 58 33 52 45 62 105 89 38 17 87 47 108 67 67
60 99 152 70 205 -15 29 -1 47 176 224 125 124 162 156 197 167 48 14 164 118
224 200 49 65 34 75 -18 13 -76 -91 -166 -175 -188 -175 -27 0 -108 57 -115
81 -9 27 19 78 86 158 35 41 54 71 45 71 -7 0 -36 -26 -63 -57z m-37 -270 c-4
-4 -11 -1 -16 7 -16 25 -11 35 7 17 9 -9 13 -20 9 -24z m-106 -122 c-51 -56
-95 -101 -97 -101 -2 0 36 49 84 109 50 62 92 105 97 101 5 -5 -31 -52 -84
-109z m-266 -263 c34 -28 38 -35 32 -66 -7 -45 -46 -103 -92 -138 -48 -37
-102 -39 -138 -5 -14 14 -26 22 -26 19 0 -50 87 -85 143 -57 20 9 20 9 4 -4
-9 -8 -34 -17 -55 -21 -44 -6 -75 -36 -113 -104 -27 -49 -57 -64 -77 -39 -9
11 -4 24 23 63 31 44 35 56 35 114 0 77 21 129 77 190 77 86 126 99 187 48z
m53 -95 c-3 -10 -5 -2 -5 17 0 19 2 27 5 18 2 -10 2 -26 0 -35z m-37 -76 c0
-2 -17 -19 -37 -38 l-38 -34 34 38 c33 34 41 42 41 34z"/>
<path d="M3616 4281 c-11 -12 -17 -23 -14 -26 8 -9 41 21 37 34 -3 9 -11 6
-23 -8z"/>
<path d="M4258 5110 c-21 -13 -138 -148 -138 -161 0 -24 30 -2 75 57 99 130
94 122 63 104z"/>
<path d="M4247 5041 c-99 -114 -102 -118 -78 -130 17 -9 24 -4 54 37 60 83
107 161 99 166 -5 3 -38 -30 -75 -73z"/>
<path d="M4731 5000 c-45 -66 -81 -125 -79 -131 2 -6 37 33 78 87 40 55 84
114 98 132 23 30 23 32 5 32 -14 0 -44 -36 -102 -120z"/>
<path d="M285 5085 c-56 -15 -115 -70 -115 -108 0 -13 -5 -39 -11 -57 -9 -26
-9 -41 1 -69 8 -20 16 -54 19 -75 10 -66 39 -79 185 -84 147 -5 188 7 206 64
20 60 -9 224 -39 224 -6 0 -11 9 -11 21 0 34 -50 75 -108 88 -63 13 -64 13
-127 -4z m160 -29 c65 -28 74 -93 15 -113 -43 -15 -224 -17 -251 -3 -40 22
-12 81 55 111 49 22 133 25 181 5z m103 -209 c5 -94 4 -95 -21 -112 -37 -24
-287 -19 -312 6 -15 15 -10 17 67 23 99 8 145 21 177 50 28 25 60 91 61 126 0
18 3 21 11 13 7 -7 14 -54 17 -106z m-241 55 c50 -2 113 1 140 6 41 9 45 9 29
-3 -25 -19 -116 -29 -196 -21 -76 7 -100 13 -100 28 0 6 7 7 18 2 9 -4 58 -9
109 -12z m56 -39 c71 3 95 1 87 -7 -13 -13 -200 -15 -242 -3 -45 12 -32 26 15
15 23 -5 86 -8 140 -5z m-88 -35 c33 -5 85 -7 115 -4 53 5 54 5 28 -9 -29 -16
-199 -38 -209 -27 -3 4 -11 20 -17 36 -12 26 -11 28 5 21 10 -4 45 -12 78 -17z"/>
<path d="M370 4975 c0 -9 5 -15 11 -13 6 2 11 8 11 13 0 5 -5 11 -11 13 -6 2
-11 -4 -11 -13z"/>
<path d="M275 4971 c-10 -17 12 -21 25 -6 10 12 10 15 -3 15 -9 0 -18 -4 -22
-9z"/>
<path d="M4323 5029 c-28 -35 -67 -80 -87 -98 -38 -37 -44 -51 -22 -51 25 0
171 179 164 201 -2 7 -27 -17 -55 -52z"/>
<path d="M969 5056 c-7 -14 -18 -26 -26 -26 -7 0 -13 -11 -13 -25 0 -22 -2
-24 -24 -13 -29 13 -56 5 -56 -16 0 -8 18 -30 40 -47 28 -22 44 -45 51 -73 15
-57 32 -87 79 -141 23 -27 40 -57 40 -71 0 -33 16 -30 35 6 9 17 21 30 28 30
30 1 77 61 77 98 0 21 -51 71 -137 136 l-53 40 20 21 c23 25 27 50 6 42 -11
-4 -16 3 -18 26 -4 41 -33 49 -49 13z m91 -166 l35 -30 -32 6 c-51 10 -39 -1
27 -25 53 -19 90 -50 90 -74 0 -10 -61 -67 -72 -67 -5 0 -8 6 -8 14 0 21 -49
76 -67 76 -10 0 -4 -13 20 -39 26 -29 34 -45 30 -62 l-6 -23 -9 23 c-4 13 -24
41 -43 64 -20 23 -42 64 -50 91 -21 70 -18 89 7 39 12 -26 40 -57 70 -79 27
-21 53 -46 57 -56 6 -18 9 -18 20 -4 11 13 3 22 -49 63 -60 46 -90 86 -90 118
0 19 18 10 70 -35z"/>
<path d="M1675 5036 c-97 -44 -147 -133 -124 -218 14 -53 83 -123 136 -137 62
-18 153 -13 203 10 86 39 120 88 120 172 0 152 -181 245 -335 173z m211 -25
c101 -46 133 -163 67 -241 -76 -91 -226 -104 -318 -27 -95 78 -81 198 30 259
62 34 157 38 221 9z"/>
<path d="M1810 4965 c0 -9 6 -12 15 -9 8 4 15 10 15 15 0 5 -7 9 -15 9 -8 0
-15 -7 -15 -15z"/>
<path d="M1752 4954 c4 -21 22 -23 26 -1 2 10 -3 17 -13 17 -10 0 -15 -6 -13
-16z"/>
<path d="M1646 4929 c-40 -47 -36 -108 8 -156 31 -34 39 -37 98 -41 51 -3 76
0 112 16 25 12 46 26 46 33 0 7 -7 8 -17 4 -91 -39 -146 -44 -193 -20 -63 33
-78 96 -35 159 30 44 17 48 -19 5z"/>
<path d="M1880 4950 c0 -5 5 -10 10 -10 6 0 10 5 10 10 0 6 -4 10 -10 10 -5 0
-10 -4 -10 -10z"/>
<path d="M1821 4906 c-9 -10 -9 -16 -1 -21 13 -8 42 14 34 26 -8 13 -20 11
-33 -5z"/>
<path d="M1693 4895 c-3 -9 -3 -18 0 -22 10 -10 37 6 37 22 0 20 -29 20 -37 0z"/>
<path d="M1896 4891 c-3 -5 1 -14 8 -20 16 -13 32 2 21 19 -8 12 -22 13 -29 1z"/>
<path d="M1800 4835 c0 -12 7 -15 25 -13 14 2 26 8 26 13 0 6 -12 11 -26 13
-18 2 -25 -1 -25 -13z"/>
<path d="M1720 4822 c0 -11 7 -23 16 -26 11 -4 15 0 12 16 -4 28 -28 36 -28
10z"/>
<path d="M3752 4928 c-31 -31 6 -82 55 -76 34 4 41 29 19 63 -18 27 -54 33
-74 13z m56 -36 c3 -9 -2 -13 -14 -10 -9 1 -19 9 -22 16 -3 9 2 13 14 10 9 -1
19 -9 22 -16z"/>
<path d="M4978 4903 c-8 -10 -25 -36 -38 -57 -36 -59 -80 -106 -100 -106 -10
0 -43 11 -74 25 -31 14 -63 25 -71 25 -9 0 -30 -21 -48 -47 -17 -25 -67 -96
-110 -157 -93 -130 -100 -144 -116 -218 -9 -44 -35 -93 -115 -215 -57 -87
-117 -185 -134 -218 -16 -33 -62 -116 -101 -185 -78 -138 -87 -176 -44 -186
14 -4 33 -3 41 2 8 6 47 74 86 152 39 78 79 147 88 154 9 7 60 90 113 183 131
232 145 243 261 209 105 -30 145 2 243 198 65 132 81 190 62 226 -10 19 -4 27
69 82 71 54 80 65 80 93 0 18 -5 38 -12 45 -18 18 -63 15 -80 -5z m62 -37 c0
-20 -19 -31 -32 -18 -6 6 -7 15 -4 21 10 16 36 13 36 -3z m-305 -116 c8 -13
-61 -187 -95 -240 -35 -55 -93 -110 -115 -110 -21 0 -19 12 12 56 74 107 95
143 113 192 11 30 18 58 15 62 -11 18 25 58 46 53 10 -3 21 -9 24 -13z m5
-121 c-17 -46 -43 -104 -57 -128 -30 -51 -100 -131 -116 -131 -5 0 11 22 36
49 49 53 84 115 112 201 28 85 48 127 52 109 2 -8 -10 -53 -27 -100z m70 87
c0 -18 -69 -185 -101 -246 -61 -113 -68 -109 -11 5 27 55 60 133 73 173 12 39
27 72 31 72 4 0 8 -2 8 -4z m-190 -87 c-37 -66 -135 -199 -146 -199 -7 0 -3 5
94 153 46 71 86 126 89 124 2 -3 -14 -38 -37 -78z m159 -105 c-17 -43 -36 -83
-41 -89 -6 -5 -2 8 7 30 9 22 26 64 37 93 11 29 22 52 24 49 2 -2 -10 -39 -27
-83z m-56 -119 c-3 -9 -8 -14 -10 -11 -3 3 -2 9 2 15 9 16 15 13 8 -4z m-404
-345 c-51 -84 -95 -147 -97 -141 -2 7 2 20 10 29 8 9 36 53 63 97 84 140 107
176 112 172 2 -3 -38 -73 -88 -157z m-119 -187 c0 -16 -121 -255 -142 -280 -6
-7 -15 -13 -20 -13 -28 0 -12 44 62 175 76 132 100 161 100 118z"/>
<path d="M4694 4704 c-25 -68 -68 -150 -105 -199 -69 -91 -72 -95 -61 -95 13
0 75 69 105 117 31 49 82 181 74 189 -4 4 -10 -2 -13 -12z"/>
<path d="M2754 4852 c-38 -25 -39 -91 -1 -117 32 -22 55 -18 88 14 33 34 37
70 11 94 -19 17 -78 23 -98 9z m38 -38 c-18 -14 -30 -30 -26 -35 3 -5 21 3 40
17 40 31 50 28 33 -10 -23 -49 -89 -48 -89 2 0 35 16 52 50 52 l25 0 -33 -26z"/>
<path d="M760 4822 c0 -4 5 -13 11 -19 9 -9 4 -23 -20 -54 -34 -47 -41 -98
-16 -119 14 -12 15 -8 9 26 -5 34 -1 44 26 79 47 59 49 58 25 -10 -6 -17 -4
-17 14 4 26 29 26 42 0 75 -19 24 -49 36 -49 18z"/>
<path d="M1252 4729 c53 -75 67 -87 104 -95 65 -13 114 74 62 110 -24 17 -58
21 -58 8 0 -5 11 -14 25 -20 67 -31 20 -93 -50 -66 -19 8 -45 55 -45 83 0 22
-27 41 -60 41 -19 0 -16 -6 22 -61z"/>
<path d="M2097 4600 c-30 -24 -50 -77 -46 -123 2 -18 -1 -38 -5 -46 -17 -27
11 -32 42 -6 26 21 37 24 70 19 47 -7 94 15 111 53 15 33 16 29 -33 79 -51 51
-95 58 -139 24z m89 -15 c19 -14 18 -14 -3 -15 -23 0 -37 -15 -78 -85 l-24
-40 -1 48 c0 41 5 53 29 78 33 33 48 36 77 14z m22 -36 c-5 -15 -68 -53 -68
-40 0 15 41 51 58 51 7 0 12 -5 10 -11z m42 -39 c0 -25 -29 -40 -74 -40 -47 0
-45 10 7 37 53 27 67 28 67 3z"/>
<path d="M4113 4613 c-18 -7 -16 -38 2 -57 29 -29 65 7 45 45 -11 19 -23 22
-47 12z m27 -28 c0 -8 -4 -15 -10 -15 -5 0 -10 7 -10 15 0 8 5 15 10 15 6 0
10 -7 10 -15z"/>
<path d="M45 4587 c-22 -7 -41 -20 -43 -29 -3 -15 1 -15 40 -1 56 19 140 13
176 -14 15 -11 33 -39 41 -62 12 -39 12 -45 -6 -69 -20 -27 -98 -82 -195 -137
-38 -22 -54 -37 -56 -55 l-4 -25 24 21 c12 12 50 36 82 54 33 18 83 53 113 77
50 41 53 42 53 19 0 -39 -29 -109 -58 -139 -33 -35 -103 -72 -166 -88 -39 -10
-47 -15 -44 -33 3 -19 8 -21 58 -18 71 4 117 27 156 79 51 67 74 141 74 237 0
90 -16 128 -71 168 -32 24 -121 32 -174 15z"/>
<path d="M5098 4503 c-9 -10 -34 -54 -55 -98 -34 -71 -38 -88 -38 -157 0 -71
2 -79 30 -108 17 -18 42 -38 58 -46 26 -14 27 -13 27 9 0 17 -8 25 -32 32 -24
7 -38 21 -52 49 -17 35 -18 47 -9 102 11 62 40 133 76 187 22 33 18 56 -5 30z"/>
<path d="M126 4493 c-11 -11 -6 -23 9 -23 8 0 15 4 15 9 0 13 -16 22 -24 14z"/>
<path d="M1230 4379 c-193 -156 -250 -209 -250 -230 0 -20 35 -40 57 -32 23 9
458 245 467 253 13 13 -27 75 -51 78 -15 2 -68 -30 -160 -96 -338 -242 -361
-244 -66 -5 79 63 140 119 137 124 -3 5 -6 9 -7 9 -2 0 -59 -45 -127 -101z
m238 39 c7 -7 12 -18 12 -25 0 -14 -18 -25 -266 -157 -182 -97 -263 -129 -143
-57 76 46 327 217 349 237 18 17 32 18 48 2z"/>
<path d="M5103 4458 c-48 -101 -52 -122 -29 -167 15 -29 46 -59 46 -45 0 4 -9
27 -21 50 l-20 43 20 47 c25 55 25 58 9 48 -9 -6 -9 -3 0 9 8 9 12 21 10 28
-2 6 -9 0 -15 -13z"/>
<path d="M730 4450 c-40 -40 -39 -128 2 -183 14 -18 27 -40 31 -49 10 -27 25
-22 43 15 9 17 27 45 40 60 44 53 27 129 -36 162 -39 20 -56 19 -80 -5z m20
-36 c-7 -17 -7 -38 0 -63 14 -49 12 -60 -5 -37 -17 23 -20 79 -5 107 15 28 21
23 10 -7z m56 -24 c28 -42 27 -72 -1 -113 -14 -20 -14 -20 -23 4 -5 13 -13 40
-17 59 l-7 35 21 -19 c19 -18 21 -18 21 -2 0 10 -9 20 -20 23 -19 5 -27 33
-13 46 10 11 11 10 39 -33z m32 9 c20 -32 10 -30 -16 2 -13 16 -17 27 -10 24
7 -3 19 -15 26 -26z"/>
<path d="M4139 4423 c-47 -51 -84 -118 -167 -298 -38 -83 -91 -182 -117 -220
-96 -140 -113 -206 -60 -241 49 -32 67 -10 148 181 33 79 34 80 75 86 26 3 48
14 61 30 64 78 133 292 135 419 1 69 -1 75 -20 78 -14 2 -32 -10 -55 -35z m22
-102 c-19 -76 -72 -243 -76 -239 -2 2 14 64 35 138 22 74 40 146 41 160 1 19
3 20 6 6 3 -10 0 -39 -6 -65z m-56 -63 c-15 -51 -30 -99 -35 -108 -4 -8 -15
-38 -23 -66 -13 -45 -13 -55 -1 -79 19 -37 4 -55 -45 -55 l-37 0 -48 -111
c-27 -60 -50 -108 -53 -105 -3 2 8 32 23 65 41 93 21 85 -24 -8 -21 -46 -35
-84 -29 -88 5 -3 14 1 19 8 8 12 9 12 6 0 -7 -25 -34 -36 -52 -22 -32 26 -10
94 66 205 23 34 76 133 118 221 86 184 132 265 138 247 2 -6 -8 -53 -23 -104z
m82 70 c-3 -8 -6 -5 -6 6 -1 11 2 17 5 13 3 -3 4 -12 1 -19z m-27 -129 c-20
-77 -50 -151 -36 -89 20 91 51 200 54 187 2 -8 -7 -52 -18 -98z"/>
<path d="M62 4438 c-7 -7 -12 -16 -12 -20 0 -12 28 -10 36 3 10 17 -10 31 -24
17z"/>
<path d="M165 4429 c-4 -6 -5 -13 -2 -16 7 -7 27 6 27 18 0 12 -17 12 -25 -2z"/>
<path d="M1766 4424 c-21 -21 -20 -29 7 -65 19 -27 22 -43 23 -137 0 -120 7
-143 61 -203 44 -49 102 -78 155 -79 58 0 71 28 72 154 1 97 -1 105 -29 152
-24 39 -42 55 -90 78 -33 16 -64 35 -68 42 -4 8 -21 14 -37 14 -21 0 -33 8
-47 30 -20 34 -26 36 -47 14z m64 -76 c0 -14 -19 1 -31 25 -12 22 -12 22 10 3
11 -11 21 -23 21 -28z m161 -95 c26 -28 49 -65 49 -79 0 -4 -13 12 -29 37 -15
25 -41 55 -57 68 -16 12 -20 18 -9 12 11 -5 32 -22 46 -38z m-83 -164 c37 -33
42 -45 11 -29 -38 21 -59 70 -57 135 l1 60 6 -68 c5 -61 10 -72 39 -98z m22
119 c0 -5 -4 -8 -10 -8 -5 0 -10 10 -10 23 0 18 2 19 10 7 5 -8 10 -18 10 -22z
m90 -91 c6 -27 8 -52 6 -55 -3 -2 -8 9 -11 24 -4 16 -13 49 -21 74 -12 39 -12
42 1 26 7 -10 19 -41 25 -69z m-110 8 l25 -30 -27 24 c-16 14 -28 29 -28 34 0
6 1 8 3 6 1 -2 13 -17 27 -34z m-49 -62 c13 -16 12 -17 -3 -4 -10 7 -18 15
-18 17 0 8 8 3 21 -13z m69 -38 c13 -14 21 -25 18 -25 -2 0 -15 11 -28 25 -13
14 -21 25 -18 25 2 0 15 -11 28 -25z m100 -53 c0 -15 -2 -15 -10 -2 -13 20
-13 33 0 25 6 -3 10 -14 10 -23z"/>
<path d="M2375 4406 c-60 -28 -127 -99 -143 -154 -59 -196 113 -385 305 -333
181 49 254 262 140 413 -69 92 -197 123 -302 74z m200 -35 c22 -10 51 -31 65
-47 l25 -29 -30 27 c-89 80 -225 78 -315 -5 l-35 -32 30 34 c61 68 175 91 260
52z m-80 -18 c-126 -17 -195 -78 -195 -173 0 -55 20 -99 63 -137 45 -39 97
-57 154 -50 47 5 75 24 104 72 11 17 19 26 19 20 0 -18 -38 -67 -66 -86 -67
-44 -199 -6 -250 71 -87 131 5 291 166 288 33 -1 33 -1 5 -5z m104 -39 c42
-37 81 -107 80 -140 0 -10 -7 1 -14 27 -16 51 -66 111 -110 134 -19 9 -24 15
-13 15 10 0 36 -16 57 -36z m-43 -20 c18 -15 18 -15 -3 -5 -32 16 -120 13
-154 -4 -16 -9 -39 -30 -49 -48 -11 -18 -20 -27 -20 -20 0 17 50 74 74 83 37
15 130 11 152 -6z m122 -29 c-3 -3 -9 2 -12 12 -6 14 -5 15 5 6 7 -7 10 -15 7
-18z m-395 0 c-3 -9 -8 -14 -10 -11 -3 3 -2 9 2 15 9 16 15 13 8 -4z m337 -34
c25 -41 31 -57 27 -93 l-4 -43 -1 47 c-1 25 -5 48 -9 50 -9 3 -56 88 -49 88 2
0 18 -22 36 -49z m-180 36 c0 -2 -10 -12 -21 -23 -22 -19 -22 -19 -10 4 10 18
31 31 31 19z m-173 -49 c-3 -8 -6 -5 -6 6 -1 11 2 17 5 13 3 -3 4 -12 1 -19z
m291 -23 c18 -53 2 -105 -41 -140 l-32 -27 30 7 c17 3 40 16 53 27 12 12 22
16 22 10 0 -34 -97 -61 -153 -43 -40 13 -107 82 -107 109 0 10 7 2 18 -18 20
-41 75 -80 112 -80 39 0 100 71 100 117 0 14 -3 13 -17 -7 -10 -14 -17 -28
-16 -31 4 -11 -41 -46 -67 -53 -22 -6 -23 -5 -8 6 9 7 25 18 35 25 15 10 11
12 -29 12 -38 1 -50 6 -67 27 -12 15 -21 36 -20 48 0 15 4 10 12 -14 21 -62
97 -66 139 -9 16 22 18 30 9 48 -16 29 -33 27 -25 -3 8 -32 -10 -62 -42 -70
-51 -13 -76 41 -29 62 21 10 27 9 32 -3 8 -21 -6 -33 -17 -15 -7 11 -12 12
-21 3 -6 -6 -8 -16 -5 -22 18 -29 71 7 60 41 -7 24 11 39 41 36 13 -2 24 -16
33 -43z m-301 -37 c-3 -7 -5 -2 -5 12 0 14 2 19 5 13 2 -7 2 -19 0 -25z m17
-53 c5 -22 4 -26 -4 -15 -5 8 -10 24 -10 34 0 26 6 18 14 -19z m403 -7 c-3 -8
-6 -5 -6 6 -1 11 2 17 5 13 3 -3 4 -12 1 -19z m-302 -112 c19 -10 54 -21 78
-25 26 -6 33 -9 17 -10 -65 -3 -154 48 -181 103 -6 11 3 5 20 -15 16 -20 46
-44 66 -53z"/>
<path d="M2818 4390 c-12 -8 -18 -24 -18 -50 0 -73 93 -118 140 -68 28 30 27
83 -2 102 -31 20 -99 29 -120 16z m58 -41 c10 -35 31 -36 26 -1 -3 25 10 29
28 7 16 -20 5 -62 -20 -75 -45 -24 -111 47 -80 85 20 23 36 18 46 -16z"/>
<path d="M85 4370 c-3 -5 3 -10 14 -10 12 0 21 5 21 10 0 6 -6 10 -14 10 -8 0
-18 -4 -21 -10z"/>
<path d="M17 4342 c-10 -10 -14 -21 -11 -25 8 -7 54 22 54 34 0 15 -26 10 -43
-9z"/>
<path d="M391 4262 c-119 -65 -78 -257 58 -270 84 -8 148 47 139 121 -3 26 1
38 14 46 24 15 11 41 -21 41 -18 0 -36 11 -56 35 -38 45 -85 54 -134 27z m89
-22 c32 -17 80 -98 80 -135 0 -64 -96 -109 -161 -75 -28 16 -49 63 -49 115 0
38 5 52 29 76 31 30 67 37 101 19z"/>
<path d="M386 4189 c-31 -36 -33 -72 -7 -115 23 -38 61 -50 99 -30 26 14 42
56 21 56 -6 0 -8 4 -4 9 3 5 1 12 -5 16 -16 10 -23 -21 -10 -44 10 -20 8 -21
-28 -21 -25 0 -45 7 -55 18 -22 24 -22 49 1 48 9 -1 18 4 19 9 1 6 -7 9 -18 8
-26 -4 -24 15 4 39 19 17 22 18 25 4 4 -20 22 -21 22 -1 0 8 4 15 9 15 14 0
33 -28 26 -40 -3 -5 -1 -10 4 -10 18 0 13 36 -7 53 -29 27 -67 21 -96 -14z"/>
<path d="M446 4153 c-11 -11 -6 -23 9 -23 8 0 15 4 15 9 0 13 -16 22 -24 14z"/>
<path d="M510 4115 c0 -9 5 -15 11 -13 6 2 11 8 11 13 0 5 -5 11 -11 13 -6 2
-11 -4 -11 -13z"/>
<path d="M406 4101 c-8 -12 21 -34 34 -26 17 11 11 35 -9 35 -11 0 -22 -4 -25
-9z"/>
<path d="M1576 4144 c-19 -20 -26 -37 -26 -65 0 -36 20 -65 28 -41 2 7 17 12
33 12 37 0 69 32 69 68 0 57 -58 71 -104 26z m74 -2 c0 -4 -13 -13 -29 -20
-15 -7 -33 -22 -39 -35 l-11 -22 0 23 c-1 27 32 62 59 62 11 0 20 -3 20 -8z
m8 -39 c-3 -18 -55 -49 -65 -39 -6 6 46 56 59 56 5 0 8 -8 6 -17z"/>
<path d="M4719 4128 c-57 -15 -101 -67 -106 -125 -7 -87 63 -153 162 -153 82
0 125 49 125 140 0 117 -68 168 -181 138z m89 -31 c2 -10 -2 -32 -9 -49 -14
-34 -19 -28 -34 40 -6 31 -5 33 16 30 13 -2 25 -11 27 -21z m-59 -28 c17 -49
14 -52 -23 -30 -18 12 -41 21 -51 21 -17 0 -17 1 0 20 28 31 61 26 74 -11z
m121 -35 c0 -9 -11 -14 -29 -14 -29 0 -29 0 -18 36 l11 36 18 -22 c10 -12 18
-28 18 -36z m-170 -4 c22 -11 40 -25 40 -30 0 -6 -22 -10 -50 -10 -46 0 -50 2
-50 23 0 21 7 37 17 37 2 0 22 -9 43 -20z m170 -43 c0 -7 -10 -18 -22 -26 -19
-12 -23 -11 -35 5 -20 28 -16 34 22 34 21 0 35 -5 35 -13z m-144 -54 c-15 -13
-33 -23 -41 -23 -13 0 -45 36 -45 52 0 11 104 14 109 4 2 -5 -8 -20 -23 -33z
m111 6 c26 13 33 14 33 3 0 -10 -35 -52 -42 -52 -7 0 -58 77 -58 87 0 5 10 -5
23 -21 20 -25 26 -27 44 -17z m-47 -46 c0 -21 -27 -27 -61 -13 l-31 13 31 13
c17 7 31 19 31 26 1 17 30 -21 30 -39z"/>
<path d="M3029 4045 c-16 -9 -38 -40 -57 -79 -17 -36 -40 -70 -51 -76 -61 -32
-97 -168 -66 -250 9 -25 25 -72 36 -106 15 -47 25 -64 46 -73 16 -8 36 -17 45
-22 10 -5 36 -9 57 -9 35 0 44 5 73 41 18 22 60 60 94 85 92 65 107 102 99
241 -4 59 -11 121 -17 136 -13 33 -61 61 -93 53 -18 -5 -24 -1 -29 17 -6 26
-54 57 -88 57 -12 -1 -35 -7 -49 -15z m105 -37 c7 -11 7 -26 0 -45 -9 -25 -13
-27 -56 -24 l-47 2 -38 -56 c-21 -32 -46 -69 -55 -84 -22 -32 -23 -81 -3 -148
18 -60 35 -76 97 -93 45 -12 50 -11 93 14 25 15 58 46 73 68 23 35 28 56 33
137 8 121 -1 146 -52 146 -25 0 -35 4 -32 12 3 7 9 11 13 8 5 -3 11 -1 15 5
11 17 61 11 80 -10 15 -16 19 -41 21 -136 5 -147 -4 -167 -100 -238 -39 -29
-77 -60 -85 -69 -7 -9 -19 -17 -25 -17 -6 1 3 12 19 25 20 17 25 25 14 25 -9
0 -24 -9 -35 -21 -32 -36 -53 -43 -74 -24 -11 10 -26 15 -34 12 -17 -7 -31 8
-41 43 -7 24 -7 24 9 5 11 -15 15 -16 15 -5 0 21 -28 69 -29 50 -1 -8 -10 12
-20 45 -36 110 -24 160 56 247 24 25 46 59 50 75 12 49 43 74 88 71 23 -2 43
-10 50 -20z m-69 -107 c-3 -11 -1 -22 5 -26 7 -4 14 2 17 14 8 31 23 15 24
-27 l1 -37 11 33 c14 37 32 52 65 52 21 0 22 -3 22 -92 0 -110 -17 -156 -75
-207 -35 -30 -42 -33 -83 -27 -55 7 -75 24 -90 75 -22 72 -16 101 39 184 47
73 78 100 64 58z"/>
<path d="M3054 3809 c-10 -17 13 -36 27 -22 12 12 4 33 -11 33 -5 0 -12 -5
-16 -11z"/>
<path d="M3083 3735 c-3 -9 -3 -18 0 -22 10 -10 37 6 37 22 0 20 -29 20 -37 0z"/>
<path d="M3050 3656 c-13 -34 -13 -56 0 -56 10 0 25 68 16 77 -3 3 -10 -6 -16
-21z"/>
<path d="M1241 4036 c-11 -13 -9 -22 9 -51 20 -32 21 -41 11 -80 -31 -122 4
-212 91 -235 31 -9 46 -7 87 11 68 29 84 49 89 115 5 54 4 55 -41 99 -38 36
-57 46 -107 56 -55 11 -62 15 -82 52 -26 46 -40 54 -57 33z m201 -263 c34 -63
13 -64 -42 -3 -26 30 -51 52 -56 47 -4 -4 10 -25 31 -47 42 -43 29 -57 -18
-20 -29 23 -42 59 -52 139 l-7 54 60 -64 c34 -35 71 -83 84 -106z m11 126 c26
-17 47 -34 47 -37 0 -4 3 -18 7 -32 6 -22 3 -21 -30 12 -22 22 -51 40 -71 44
-19 3 -42 15 -52 25 -16 18 -16 19 18 19 22 0 52 -11 81 -31z m-142 -122 c17
-39 56 -67 96 -67 20 0 32 -4 28 -10 -9 -15 -62 -12 -95 5 -42 22 -60 63 -59
132 l1 58 9 -45 c5 -25 14 -58 20 -73z m148 57 c12 -15 21 -38 21 -53 l-1 -26
-16 30 c-8 17 -25 40 -36 53 -17 18 -18 22 -4 22 8 0 25 -12 36 -26z"/>
<path d="M893 3948 c-23 -30 -35 -90 -40 -199 -5 -102 -3 -121 15 -162 18 -41
29 -51 75 -72 84 -39 81 -33 148 -283 18 -68 38 -130 44 -139 15 -20 62 -20
83 1 15 14 14 22 -7 88 -13 40 -48 126 -78 191 -49 105 -54 123 -47 155 4 20
8 66 8 102 1 58 -4 76 -45 160 -64 133 -127 196 -156 158z m24 -40 c-3 -7 -5
-2 -5 12 0 14 2 19 5 13 2 -7 2 -19 0 -25z m-7 -329 c12 -23 12 -23 -6 -6 -17
15 -19 35 -21 155 l-1 137 8 -131 c4 -72 13 -142 20 -155z m95 132 c20 -73 34
-138 33 -143 -4 -12 -78 247 -78 271 0 30 10 1 45 -128z m-26 -106 l21 -56
-22 3 c-32 4 -47 56 -53 181 l-5 102 19 -87 c10 -47 29 -112 40 -143z m87 56
c12 -46 12 -75 1 -60 -3 4 -45 157 -53 194 -9 40 38 -81 52 -134z m94 -403
c18 -46 33 -96 34 -113 1 -25 -3 -30 -23 -30 -22 0 -27 9 -57 105 -17 58 -30
108 -27 113 2 4 13 7 23 7 14 0 26 -20 50 -82z"/>
<path d="M122 3876 c-25 -20 -57 -36 -81 -40 -23 -3 -41 -11 -41 -17 0 -24 93
1 127 33 34 33 63 33 63 0 0 -10 -15 -33 -34 -51 -32 -31 -33 -34 -20 -59 15
-28 12 -86 -8 -152 -15 -50 -55 -100 -94 -116 -19 -8 -34 -21 -34 -29 0 -13 4
-13 37 0 21 9 48 25 60 36 48 46 84 183 65 252 -9 32 -8 38 12 51 13 8 29 28
36 45 10 26 10 35 -4 56 -22 33 -36 32 -84 -9z"/>
<path d="M5043 3835 c-60 -30 -79 -56 -94 -124 -17 -79 3 -154 55 -208 22 -23
58 -50 79 -58 35 -14 37 -14 37 4 0 12 -9 21 -24 25 -70 17 -125 105 -126 197
0 73 27 115 98 148 50 25 66 41 39 41 -7 0 -36 -11 -64 -25z"/>
<path d="M117 3812 c-31 -32 -34 -47 -11 -56 8 -3 13 -2 9 3 -3 5 0 16 7 23
45 48 51 58 36 58 -8 0 -26 -13 -41 -28z"/>
<path d="M2568 3795 c-14 -32 0 -83 28 -102 19 -12 24 -11 44 5 28 23 22 61
-15 98 -30 30 -43 30 -57 -1z m55 -34 c22 -38 21 -51 -3 -51 -22 0 -45 43 -36
67 8 20 20 16 39 -16z"/>
<path d="M2293 3795 c-56 -24 -62 -69 -12 -96 16 -8 26 -7 44 5 23 15 49 81
39 98 -7 12 -34 9 -71 -7z m47 -22 c-1 -29 -26 -55 -51 -51 -34 5 -32 20 4 46
38 27 47 28 47 5z"/>
<path d="M489 3749 c-22 -28 -54 -51 -103 -74 -39 -18 -84 -44 -99 -59 -59
-56 -92 -192 -68 -281 29 -108 125 -184 216 -172 88 12 166 73 200 154 23 54
19 146 -11 247 -23 77 -25 96 -16 134 9 41 8 47 -14 68 -35 36 -67 31 -105
-17z m82 10 c18 -9 19 -17 13 -67 -5 -46 -1 -74 20 -143 33 -107 33 -168 2
-235 -28 -60 -72 -95 -129 -101 -111 -12 -189 134 -142 266 18 53 2 54 -19 1
-32 -80 -16 -186 37 -247 l32 -36 -30 7 c-120 30 -160 251 -68 374 15 19 55
48 101 71 42 22 95 58 117 80 44 46 40 44 66 30z"/>
<path d="M461 3609 c-40 -44 -82 -96 -92 -116 -23 -45 -25 -127 -4 -166 8 -15
13 -33 11 -40 -1 -7 -1 -9 1 -4 7 12 32 8 58 -9 32 -21 72 -6 115 42 49 56 51
104 9 191 -29 60 -43 54 -19 -7 11 -28 20 -71 20 -97 0 -39 -5 -50 -36 -79
-39 -38 -73 -43 -100 -16 -10 9 -20 15 -23 13 -10 -7 -31 43 -31 74 0 65 21
105 96 185 40 44 74 86 74 95 0 8 -1 15 -2 14 -2 0 -36 -36 -77 -80z"/>
<path d="M470 3537 c0 -19 16 -31 24 -18 3 5 -1 14 -9 21 -12 10 -15 10 -15
-3z"/>
<path d="M505 3489 c-10 -15 3 -25 16 -12 7 7 7 13 1 17 -6 3 -14 1 -17 -5z"/>
<path d="M432 3478 c6 -18 28 -21 28 -4 0 9 -7 16 -16 16 -9 0 -14 -5 -12 -12z"/>
<path d="M407 3436 c-3 -8 -2 -18 3 -21 13 -8 24 15 12 27 -6 6 -11 4 -15 -6z"/>
<path d="M505 3431 c-6 -11 9 -23 19 -14 9 9 7 23 -3 23 -6 0 -12 -4 -16 -9z"/>
<path d="M454 3399 c-10 -17 13 -36 27 -22 12 12 4 33 -11 33 -5 0 -12 -5 -16
-11z"/>
<path d="M402 3371 c4 -13 18 -16 19 -4 0 4 -5 9 -11 12 -7 2 -11 -2 -8 -8z"/>
<path d="M465 3339 c-10 -15 1 -23 20 -15 9 3 13 10 10 16 -8 13 -22 13 -30
-1z"/>
<path d="M1730 3770 c0 -6 53 -10 140 -10 87 0 140 4 140 10 0 6 -53 10 -140
10 -87 0 -140 -4 -140 -10z"/>
<path d="M5039 3761 c-20 -16 -24 -28 -23 -75 0 -31 5 -61 12 -68 9 -9 12 1
12 48 0 38 6 68 16 82 21 31 13 37 -17 13z"/>
<path d="M5102 3743 c-7 -12 -12 -35 -12 -52 0 -36 -17 -42 -23 -8 -3 13 -5 7
-6 -16 -1 -40 17 -85 43 -106 24 -20 21 14 -4 46 -26 33 -26 53 0 22 14 -18
19 -20 20 -8 0 8 -5 20 -11 26 -8 8 -8 21 1 47 6 20 10 44 8 53 -3 16 -5 15
-16 -4z"/>
<path d="M48 3728 c-27 -11 -48 -26 -48 -33 0 -9 15 -6 50 11 28 13 50 29 50
34 0 6 -1 10 -2 9 -2 0 -24 -10 -50 -21z"/>
<path d="M3445 3705 c-14 -13 -25 -33 -25 -45 0 -49 79 -80 114 -44 23 23 20
67 -7 92 -30 28 -52 28 -82 -3z m27 -41 c-8 -36 -9 -37 -20 -18 -9 16 -8 26 4
43 21 30 26 22 16 -25z m52 10 c7 -24 -16 -60 -33 -50 -10 7 -8 33 5 75 5 17
19 5 28 -25z"/>
<path d="M4644 3696 c-13 -21 -24 -26 -57 -26 -34 0 -46 -6 -76 -39 -25 -26
-47 -40 -74 -44 -20 -3 -51 -16 -68 -28 -34 -24 -69 -89 -69 -129 0 -38 34
-101 73 -139 30 -28 46 -35 89 -39 44 -3 59 0 88 20 69 47 95 113 68 172 -10
23 -8 28 15 46 34 27 50 84 37 130 -8 26 -6 35 6 45 18 13 16 46 -3 52 -6 2
-19 -7 -29 -21z m-76 -64 c-38 -23 -36 -36 2 -17 17 9 35 13 40 10 18 -11 11
-51 -15 -89 -27 -40 -20 -48 12 -13 28 30 36 62 23 87 -13 25 -4 42 10 20 17
-27 11 -86 -11 -115 -18 -21 -28 -26 -53 -22 -17 2 -41 1 -53 -4 -25 -9 -26
-8 -17 15 3 9 12 12 22 8 15 -5 15 -4 3 11 -7 9 -17 14 -22 11 -12 -7 -11 3 1
48 11 38 42 68 70 68 9 0 4 -7 -12 -18z m-98 -91 c15 -30 12 -63 -11 -110 -25
-51 -20 -81 6 -31 25 50 45 70 69 70 65 0 90 -79 40 -125 -33 -31 -96 -49
-140 -40 -41 7 -79 51 -89 102 -6 32 -9 35 -15 18 -5 -11 -9 -14 -9 -7 -1 19
28 84 47 105 34 39 86 47 102 18z m57 -257 c-3 -3 -12 -4 -19 -1 -8 3 -5 6 6
6 11 1 17 -2 13 -5z m-44 -11 c-7 -2 -19 -2 -25 0 -7 3 -2 5 12 5 14 0 19 -2
13 -5z"/>
<path d="M26 3627 c-32 -65 -33 -76 -5 -51 28 25 53 84 41 96 -6 6 -19 -12
-36 -45z"/>
<path d="M1 3624 c0 -11 3 -14 6 -6 3 7 2 16 -1 19 -3 4 -6 -2 -5 -13z"/>
<path d="M2402 3595 c-29 -8 -68 -26 -86 -40 -22 -17 -39 -22 -55 -18 -23 6
-23 5 -7 -25 43 -84 148 -113 206 -57 33 32 54 86 48 125 -4 31 -32 35 -106
15z m75 -56 c-14 -55 -51 -89 -97 -89 -21 0 -43 7 -50 15 -11 13 -10 15 1 11
8 -3 29 -2 47 2 26 5 40 18 59 50 30 50 14 58 -16 8 -15 -24 -31 -36 -55 -40
-33 -6 -66 0 -66 13 1 23 109 69 161 68 25 0 26 -1 16 -38z"/>
<path d="M1580 3567 c-106 -30 -160 -89 -160 -174 0 -58 32 -111 96 -159 21
-16 46 -37 56 -46 14 -14 35 -18 96 -18 l78 0 72 68 c77 73 102 118 102 181 0
50 -45 105 -108 134 -55 24 -172 31 -232 14z m237 -45 c83 -43 98 -105 36
-146 -102 -67 -302 -58 -381 17 -42 39 -13 93 73 134 44 21 61 24 140 20 68
-2 100 -9 132 -25z m-318 -189 c2 -2 0 -3 -6 -3 -6 0 -21 9 -34 21 l-24 20 30
-17 c17 -10 32 -19 34 -21z m306 -18 c-16 -8 -39 -14 -50 -14 -11 0 -2 6 20
14 52 17 68 17 30 0z m-140 -43 c85 -3 120 0 148 12 48 19 39 6 -21 -36 -43
-30 -53 -33 -123 -33 -67 0 -81 4 -124 30 -26 17 -55 41 -63 54 l-16 23 44
-23 c37 -19 64 -24 155 -27z m-27 31 c-10 -2 -28 -2 -40 0 -13 2 -5 4 17 4 22
1 32 -1 23 -4z"/>
<path d="M1607 3523 c-13 -12 -7 -23 13 -23 11 0 20 7 20 15 0 15 -21 21 -33
8z"/>
<path d="M1707 3514 c-4 -4 -4 -10 -1 -15 6 -10 34 0 34 12 0 10 -24 12 -33 3z"/>
<path d="M1530 3501 c0 -5 5 -13 10 -16 6 -3 10 -2 10 4 0 5 -4 13 -10 16 -5
3 -10 2 -10 -4z"/>
<path d="M1770 3485 c0 -8 7 -15 15 -15 8 0 15 4 15 9 0 5 -7 11 -15 15 -9 3
-15 0 -15 -9z"/>
<path d="M1490 3480 c-8 -5 -11 -12 -7 -16 4 -4 15 0 24 9 18 18 8 23 -17 7z"/>
<path d="M1625 3470 c-8 -13 20 -24 36 -15 8 6 7 10 -2 16 -18 11 -26 11 -34
-1z"/>
<path d="M1565 3460 c-11 -17 5 -32 21 -19 8 6 14 15 14 20 0 12 -27 11 -35
-1z"/>
<path d="M1805 3460 c-19 -8 -19 -9 3 -9 12 -1 22 4 22 9 0 6 -1 10 -2 9 -2 0
-12 -4 -23 -9z"/>
<path d="M1730 3450 c0 -5 7 -10 15 -10 8 0 15 5 15 10 0 6 -7 10 -15 10 -8 0
-15 -4 -15 -10z"/>
<path d="M1495 3420 c-8 -13 4 -32 16 -25 12 8 12 35 0 35 -6 0 -13 -4 -16
-10z"/>
<path d="M1795 3420 c3 -5 8 -10 11 -10 2 0 4 5 4 10 0 6 -5 10 -11 10 -5 0
-7 -4 -4 -10z"/>
<path d="M1825 3419 c-10 -15 1 -23 20 -15 9 3 13 10 10 16 -8 13 -22 13 -30
-1z"/>
<path d="M1614 3409 c-8 -14 11 -33 25 -25 6 4 11 14 11 22 0 16 -26 19 -36 3z"/>
<path d="M1704 3409 c-10 -16 18 -30 34 -17 11 9 11 13 0 19 -18 12 -26 11
-34 -2z"/>
<path d="M1550 3391 c0 -5 6 -14 14 -20 16 -13 32 2 21 19 -8 12 -35 13 -35 1z"/>
<path d="M1765 3371 c-10 -18 15 -22 37 -7 l22 16 -26 0 c-15 0 -29 -4 -33 -9z"/>
<path d="M1636 3362 c-3 -6 -1 -14 5 -17 15 -10 25 3 12 16 -7 7 -13 7 -17 1z"/>
<path d="M1700 3350 c0 -5 5 -10 10 -10 6 0 10 5 10 10 0 6 -4 10 -10 10 -5 0
-10 -4 -10 -10z"/>
<path d="M3436 3491 c-3 -5 1 -14 9 -21 8 -7 15 -18 15 -24 0 -7 8 -28 19 -48
l18 -37 -28 -30 c-24 -27 -35 -31 -79 -31 -44 0 -51 -3 -48 -17 3 -15 15 -18
68 -18 l65 0 -4 -100 c-4 -112 7 -151 53 -197 15 -15 44 -32 63 -39 31 -10 44
-8 103 15 37 15 75 35 84 45 23 26 30 79 16 129 -12 46 -69 117 -101 127 -18
6 -18 7 2 47 26 52 12 74 -26 38 -34 -32 -41 -20 -16 26 12 21 21 46 21 56 0
42 -102 79 -117 43 -5 -14 -7 -14 -22 -1 -24 22 -89 47 -95 37z m157 -67 c4
10 10 16 13 13 3 -3 -1 -15 -9 -27 -13 -18 -15 -19 -21 -5 -3 9 -6 24 -5 33 1
10 4 6 8 -8 6 -23 8 -23 14 -6z m-47 -52 c-9 -8 -43 27 -50 51 -4 18 0 16 25
-11 17 -19 28 -36 25 -40z m80 0 c-14 -14 -16 -14 -16 -1 0 20 23 44 29 28 2
-6 -4 -18 -13 -27z m-49 -24 c-3 -8 -6 -5 -6 6 -1 11 2 17 5 13 3 -3 4 -12 1
-19z m8 -73 c17 -18 48 -41 70 -50 21 -8 48 -23 58 -33 28 -25 57 -87 57 -120
0 -25 -8 -32 -77 -66 -89 -43 -110 -41 -156 14 -40 46 -51 96 -39 166 6 37 6
68 0 83 -22 60 34 64 87 6z m165 -275 c-24 -18 -60 -33 -60 -24 0 4 72 43 80
43 3 0 -6 -8 -20 -19z"/>
<path d="M4814 3490 c-29 -12 -37 -26 -30 -56 10 -37 62 -64 124 -64 58 0 62
7 38 65 -20 48 -85 75 -132 55z m90 -49 c4 -5 -3 -7 -14 -4 -23 6 -26 13 -6
13 8 0 17 -4 20 -9z m-29 -31 c11 0 27 -5 35 -10 11 -7 6 -10 -22 -10 -25 0
-46 8 -65 25 l-28 25 30 -15 c17 -8 39 -15 50 -15z"/>
<path d="M2095 3427 c-27 -23 -27 -50 1 -61 21 -8 38 2 64 36 18 25 20 32 9
39 -23 14 -47 10 -74 -14z m49 -10 c-2 -7 -13 -18 -24 -25 -17 -10 -20 -10
-20 2 0 8 8 20 18 25 23 14 32 13 26 -2z"/>
<path d="M0 3338 c0 -9 7 -21 16 -29 16 -13 54 -81 54 -98 0 -5 -16 -18 -35
-30 -19 -11 -35 -25 -35 -31 0 -7 9 -5 22 4 38 27 45 17 9 -13 -46 -38 -37
-59 11 -26 47 32 58 77 34 139 -18 47 -76 111 -76 84z"/>
<path d="M3912 3296 c-19 -43 -24 -94 -13 -129 11 -31 16 -35 48 -35 24 0 43
8 59 24 37 36 31 69 -21 120 -24 24 -48 44 -53 44 -5 0 -14 -11 -20 -24z m62
-25 c17 -14 22 -41 8 -41 -5 0 -14 10 -20 23 -10 19 -11 17 -6 -19 4 -31 1
-46 -15 -65 l-20 -24 -2 30 c-7 98 12 131 55 96z m36 -65 c0 -16 -40 -69 -48
-62 -4 5 38 76 46 76 1 0 2 -6 2 -14z"/>
<path d="M2280 3220 c0 -6 102 -10 285 -10 183 0 285 4 285 10 0 6 -102 10
-285 10 -183 0 -285 -4 -285 -10z"/>
<path d="M4182 3218 c-13 -13 -17 -88 -4 -88 19 0 53 49 50 71 -3 27 -27 36
-46 17z m33 -17 c3 -5 1 -12 -5 -16 -5 -3 -10 1 -10 9 0 18 6 21 15 7z"/>
<path d="M5000 3119 c-126 -73 -150 -94 -150 -130 0 -42 45 -89 85 -89 41 0
179 69 183 92 3 14 -10 12 -80 -16 -119 -48 -128 -50 -128 -32 0 9 -4 16 -9
16 -5 0 -11 14 -13 31 -5 35 0 40 140 118 50 29 92 56 92 62 0 16 -12 11 -120
-52z m-23 -195 c-3 -3 -12 -4 -19 -1 -8 3 -5 6 6 6 11 1 17 -2 13 -5z"/>
<path d="M5015 3073 c-101 -51 -101 -51 -92 -59 7 -7 163 70 187 92 25 24 -2
15 -95 -33z"/>
<path d="M730 3052 c-33 -33 -52 -91 -43 -136 26 -134 208 -155 267 -31 56
116 -133 257 -224 167z m73 -74 c12 -7 47 -15 77 -18 46 -5 51 -7 29 -14 -54
-15 -169 40 -169 81 0 11 7 7 21 -11 11 -14 30 -32 42 -38z m7 52 c0 -5 -4
-10 -10 -10 -5 0 -10 5 -10 10 0 6 5 10 10 10 6 0 10 -4 10 -10z m45 -1 c11
-17 -1 -21 -15 -4 -8 9 -8 15 -2 15 6 0 14 -5 17 -11z m50 -29 c3 -5 -1 -10
-9 -10 -9 0 -16 5 -16 10 0 6 4 10 9 10 6 0 13 -4 16 -10z m-100 -154 c29 -11
34 -15 17 -15 -31 -1 -79 24 -92 48 -16 32 -12 34 13 7 12 -14 40 -32 62 -40z"/>
<path d="M2140 3045 c-30 -36 17 -89 57 -66 16 9 15 10 -8 11 -49 0 -46 43 3
52 25 5 28 2 34 -28 8 -43 16 -43 37 1 14 30 15 35 2 35 -8 0 -15 -6 -15 -12
0 -8 -4 -7 -10 3 -12 21 -84 24 -100 4z"/>
<path d="M2293 3020 c3 -54 27 -54 27 0 0 28 -4 40 -14 40 -10 0 -14 -12 -13
-40z"/>
<path d="M2347 3053 c-4 -3 -7 -19 -7 -35 0 -35 40 -59 65 -38 18 15 20 51 3
68 -13 13 -50 16 -61 5z m48 -38 c0 -28 -29 -25 -33 3 -3 19 0 23 15 20 10 -2
18 -12 18 -23z"/>
<path d="M2447 3054 c-10 -11 -9 -74 2 -74 5 0 11 6 14 13 4 10 7 10 18 0 21
-21 27 -15 26 25 -2 32 -6 37 -27 40 -14 2 -29 0 -33 -4z m48 -24 c4 -6 -5
-10 -20 -10 -15 0 -24 4 -20 10 3 6 12 10 20 10 8 0 17 -4 20 -10z"/>
<path d="M2540 3045 c-16 -19 -5 -61 17 -67 22 -6 43 1 43 13 0 6 -5 7 -10 4
-15 -9 -40 14 -33 31 3 8 14 14 25 14 10 0 16 5 13 10 -9 15 -41 12 -55 -5z"/>
<path d="M2627 3053 c-4 -3 -7 -21 -7 -39 0 -24 5 -34 20 -39 44 -14 80 41 48
73 -13 13 -50 16 -61 5z m50 -29 c8 -21 -13 -42 -28 -27 -13 13 -5 43 11 43 6
0 13 -7 17 -16z"/>
<path d="M2722 3019 c2 -33 7 -43 23 -45 36 -5 47 9 38 47 -7 27 -15 35 -37
37 -26 3 -27 2 -24 -39z m48 -19 c0 -5 -4 -10 -10 -10 -5 0 -10 5 -10 10 0 6
5 10 10 10 6 0 10 -4 10 -10z"/>
<path d="M2812 3020 c-10 -41 -6 -49 17 -27 11 10 14 10 18 0 3 -7 11 -13 18
-13 11 0 10 8 -2 40 -9 22 -22 40 -28 40 -7 0 -17 -18 -23 -40z"/>
<path d="M2897 3053 c-4 -3 -7 -21 -7 -40 0 -23 5 -33 15 -33 11 0 15 11 15
40 0 38 -8 49 -23 33z"/>
<path d="M2942 3018 c2 -36 7 -44 26 -46 12 -2 22 1 22 7 0 6 -7 11 -15 11
-10 0 -15 11 -15 35 0 19 -5 35 -11 35 -6 0 -9 -17 -7 -42z"/>
<path d="M5023 3022 c-46 -20 -83 -41 -83 -45 0 -11 29 -2 113 36 37 16 67 34
67 38 0 14 -9 11 -97 -29z"/>
<path d="M0 3010 c0 -5 9 -10 20 -10 48 0 51 -96 5 -178 -14 -24 -25 -54 -25
-64 0 -18 2 -19 17 -7 9 8 27 37 39 64 42 89 24 205 -31 205 -14 0 -25 -4 -25
-10z"/>
<path d="M4302 2996 c-174 -57 -229 -279 -104 -418 55 -61 104 -82 187 -82 80
0 129 20 182 76 65 68 90 173 60 255 -49 132 -199 210 -325 169z m185 -57 c42
-20 103 -88 103 -113 0 -6 -9 3 -19 20 -64 104 -210 143 -303 80 -57 -38 -78
-80 -80 -160 l-2 -71 -3 68 c-3 56 0 75 19 108 52 93 174 122 285 68z m-19
-36 c49 -36 72 -81 71 -137 l-2 -51 -6 50 c-12 93 -73 155 -153 155 -51 0
-120 -39 -140 -80 -39 -76 -9 -191 62 -238 30 -20 45 -23 102 -20 37 2 62 0
55 -4 -18 -12 -115 -9 -140 3 -68 35 -107 101 -107 181 0 75 42 138 106 158
44 14 122 5 152 -17z m-17 -34 l24 -20 -28 17 c-33 20 -104 15 -143 -11 -14
-9 -34 -35 -45 -58 -10 -23 -19 -35 -19 -26 0 27 44 83 80 101 48 24 102 23
131 -3z m-49 -59 c-6 -41 -12 -38 -12 6 0 19 4 33 8 30 5 -3 7 -19 4 -36z m72
-20 l7 -25 -15 25 c-17 28 -21 50 -7 35 5 -6 12 -21 15 -35z m-111 19 l21 -12
-22 -8 c-40 -15 -24 -29 32 -29 71 0 80 -16 14 -23 -39 -5 -58 -2 -76 9 l-24
16 23 24 c12 13 19 24 14 24 -4 0 -14 -8 -21 -17 -12 -16 -13 -16 -14 -2 0 30
18 36 53 18z m234 -31 c-3 -8 -6 -5 -6 6 -1 11 2 17 5 13 3 -3 4 -12 1 -19z
m-262 -58 c42 -29 72 -39 61 -21 -3 5 1 11 9 15 17 6 18 4 9 -18 -11 -29 -63
-19 -100 18 -19 19 -34 40 -33 48 0 10 2 10 6 0 2 -7 24 -26 48 -42z m254 -47
c-12 -37 -89 -123 -110 -123 -7 0 6 13 28 29 41 30 82 98 84 142 1 17 3 19 6
6 2 -9 -1 -34 -8 -54z m-321 -91 c18 -16 20 -20 7 -14 -26 13 -48 39 -69 79
-25 51 -18 53 9 3 14 -25 38 -56 53 -68z m165 76 c29 10 30 10 13 -3 -25 -19
-86 -19 -112 -1 -17 13 -14 13 24 3 32 -8 50 -8 75 1z m45 -23 c-33 -30 -45
-35 -87 -35 -40 0 -56 5 -78 26 l-28 25 32 -22 c44 -30 123 -23 161 15 15 14
29 26 32 26 3 0 -12 -16 -32 -35z m-131 -91 c-3 -3 -12 -4 -19 -1 -8 3 -5 6 6
6 11 1 17 -2 13 -5z m110 0 c-3 -3 -12 -4 -19 -1 -8 3 -5 6 6 6 11 1 17 -2 13
-5z m-44 -11 c-7 -2 -21 -2 -30 0 -10 3 -4 5 12 5 17 0 24 -2 18 -5z"/>
<path d="M488 2973 c-34 -35 -51 -80 -43 -111 6 -23 4 -24 -45 -20 -43 2 -50
0 -50 -15 0 -33 28 -85 55 -103 25 -17 29 -16 88 3 57 19 63 24 77 61 23 67
-10 212 -50 212 -3 0 -18 -12 -32 -27z m18 -116 c-14 -19 -22 -24 -28 -15 -14
23 -8 59 15 91 l22 32 5 -40 c4 -30 0 -47 -14 -68z m41 26 c-3 -10 -5 -2 -5
17 0 19 2 27 5 18 2 -10 2 -26 0 -35z m-13 -60 c-12 -55 -16 -63 -25 -58 -14
9 -11 38 7 63 20 29 26 28 18 -5z m-107 -9 c-3 -3 -12 -4 -19 -1 -8 3 -5 6 6
6 11 1 17 -2 13 -5z m51 -37 c6 -5 12 -13 12 -17 0 -14 -58 -22 -77 -11 -17
10 -17 10 2 11 16 0 17 2 5 9 -8 6 -18 7 -22 5 -4 -3 -8 -3 -8 0 0 2 -3 11 -6
19 -5 13 1 14 38 5 24 -6 49 -15 56 -21z"/>
<path d="M1227 2986 c-74 -27 -105 -79 -87 -146 25 -93 136 -152 286 -154 81
-1 94 2 127 24 82 56 84 147 5 215 -76 65 -236 94 -331 61z m208 -27 c67 -20
145 -77 145 -105 0 -36 -102 -45 -189 -17 -28 9 -69 31 -90 50 -27 23 -42 30
-47 22 -10 -16 27 -46 104 -82 72 -34 176 -43 206 -18 9 8 19 11 22 9 11 -12
-50 -47 -92 -54 -125 -18 -269 48 -291 134 -8 35 7 55 53 69 58 17 104 15 179
-8z m-214 -135 c69 -71 199 -108 299 -85 38 8 42 8 27 -4 -24 -18 -98 -28
-144 -19 -65 11 -176 68 -210 108 -33 37 -39 59 -26 93 6 14 9 9 14 -20 4 -24
19 -51 40 -73z m29 -81 c0 -8 -38 17 -51 33 -9 11 -2 9 19 -6 17 -13 32 -25
32 -27z"/>
<path d="M1292 2928 c6 -18 28 -21 28 -4 0 9 -7 16 -16 16 -9 0 -14 -5 -12
-12z"/>
<path d="M1390 2920 c0 -11 5 -20 10 -20 6 0 10 9 10 20 0 11 -4 20 -10 20 -5
0 -10 -9 -10 -20z"/>
<path d="M1470 2910 c0 -5 5 -10 10 -10 6 0 10 5 10 10 0 6 -4 10 -10 10 -5 0
-10 -4 -10 -10z"/>
<path d="M1424 2865 c-17 -13 -17 -14 -2 -15 9 0 20 5 23 11 11 17 0 20 -21 4z"/>
<path d="M1490 2856 c0 -9 7 -16 16 -16 9 0 14 5 12 12 -6 18 -28 21 -28 4z"/>
<path d="M5 2929 c-1 -53 1 -58 13 -42 14 20 13 95 -3 100 -6 2 -10 -22 -10
-58z"/>
<path d="M4966 2844 c-63 -23 -143 -90 -176 -147 -36 -63 -41 -134 -12 -160
10 -10 21 -17 24 -17 3 0 23 -16 44 -35 62 -57 120 -63 204 -20 49 24 70 45
70 67 0 18 -2 18 -30 -5 -30 -25 -127 -67 -156 -67 -25 0 -70 28 -87 53 -16
25 -16 25 31 37 101 25 242 138 242 195 l0 30 -19 -30 c-46 -75 -186 -175
-246 -175 -23 0 -25 4 -25 43 0 50 36 109 86 142 32 21 122 47 172 49 17 0 32
6 32 12 0 12 -138 -8 -178 -26 -73 -32 -132 -108 -132 -169 0 -37 -10 -62 -21
-55 -16 10 -9 59 16 110 46 93 157 163 258 164 31 0 57 5 57 10 0 15 -109 11
-154 -6z"/>
<path d="M3713 2828 c-6 -7 -15 -26 -20 -43 -6 -19 -18 -32 -34 -35 -35 -9
-69 -65 -69 -115 0 -116 156 -172 295 -106 86 40 100 60 100 135 0 53 -4 68
-28 99 -15 20 -41 44 -57 52 -34 17 -93 20 -121 5 -15 -8 -19 -7 -19 5 0 18
-34 20 -47 3z m4 -50 c-3 -8 -6 -5 -6 6 -1 11 2 17 5 13 3 -3 4 -12 1 -19z
m170 -26 c26 -21 63 -81 63 -104 0 -40 -41 -88 -75 -88 -14 0 -2 20 15 25 11
4 28 17 36 30 22 33 4 84 -42 125 -37 32 -34 42 3 12z m-157 -17 c14 -19 14
-19 -2 -6 -10 7 -18 18 -18 24 0 6 1 8 3 6 1 -2 9 -13 17 -24z m-72 -44 c-13
-15 -24 -27 -26 -26 -6 6 30 55 40 55 5 0 -1 -13 -14 -29z m92 -39 c0 -37 18
-60 55 -71 30 -9 30 -9 4 -10 -15 -1 -36 7 -48 17 -24 19 -41 92 -22 92 6 0
11 -13 11 -28z m78 -3 c-3 -8 -7 -3 -11 10 -4 17 -3 21 5 13 5 -5 8 -16 6 -23z
m-120 -34 c-6 -14 -13 -23 -15 -21 -5 5 15 46 22 46 3 0 -1 -11 -7 -25z"/>
<path d="M2004 2800 c-41 -16 -64 -59 -64 -117 0 -47 4 -59 29 -84 21 -21 39
-29 63 -29 42 0 71 20 63 42 -5 13 -12 15 -32 7 -52 -20 -93 35 -73 97 12 36
42 51 81 41 28 -7 38 22 14 39 -21 16 -50 17 -81 4z"/>
<path d="M2174 2796 c-63 -28 -78 -144 -25 -197 86 -86 211 30 156 145 -17 35
-59 66 -87 66 -7 -1 -27 -7 -44 -14z m80 -58 c22 -31 20 -84 -4 -108 -24 -24
-39 -25 -66 -6 -23 17 -27 94 -5 119 19 24 57 21 75 -5z"/>
<path d="M2393 2790 c-59 -35 -67 -130 -16 -190 35 -42 92 -42 134 -1 25 26
29 37 29 86 0 51 -3 60 -34 91 -39 39 -67 43 -113 14z m85 -42 c18 -18 15
-103 -4 -122 -32 -32 -71 -9 -81 46 -10 65 46 115 85 76z"/>
<path d="M3083 2790 c-42 -25 -53 -48 -53 -110 0 -44 4 -56 30 -82 28 -27 36
-30 75 -25 63 7 77 21 73 76 l-3 46 -42 3 c-38 3 -43 1 -43 -17 0 -14 6 -21
20 -21 13 0 20 -7 20 -19 0 -26 -15 -34 -45 -27 -34 9 -53 72 -33 112 11 25
19 29 56 30 55 1 72 16 41 38 -31 21 -57 20 -96 -4z"/>
<path d="M2590 2690 c0 -103 1 -110 20 -110 16 0 20 7 20 38 l0 37 36 -42 c33
-39 61 -53 77 -37 3 4 -12 28 -33 53 -22 26 -40 51 -40 55 0 4 16 28 35 53 19
25 35 50 35 54 0 23 -38 5 -72 -33 l-37 -43 -1 43 c0 35 -3 42 -20 42 -19 0
-20 -7 -20 -110z"/>
<path d="M2770 2690 l0 -110 25 0 25 0 0 110 0 110 -25 0 -25 0 0 -110z"/>
<path d="M2850 2691 c0 -61 2 -111 4 -111 2 0 11 -3 20 -6 14 -5 16 4 16 62
l1 69 32 -60 c22 -42 39 -61 55 -63 22 -3 22 -2 22 107 0 104 -1 111 -20 111
-18 0 -20 -7 -21 -67 l0 -68 -32 65 c-23 48 -38 66 -54 68 -23 3 -23 2 -23
-107z"/>
<path d="M660 2675 c0 -9 -9 -25 -20 -37 -21 -23 -25 -45 -12 -64 11 -18 48
-34 76 -34 16 0 26 -6 26 -15 0 -23 16 -18 39 11 48 61 4 154 -73 154 -26 0
-36 -4 -36 -15z m99 -46 c9 -16 11 -36 7 -52 -7 -29 -26 -37 -26 -11 0 28 -31
83 -51 89 -11 4 -17 11 -14 16 10 14 69 -15 84 -42z m-55 -21 c22 -32 20 -48
-7 -48 -29 0 -47 18 -47 47 0 30 33 31 54 1z"/>
<path d="M5106 2651 c-12 -18 -111 -80 -154 -96 -33 -12 -34 -14 -11 -14 31
-1 138 51 163 78 10 11 16 26 14 32 -3 10 -6 10 -12 0z"/>
<path d="M4920 2635 c0 -8 5 -15 10 -15 6 0 10 7 10 15 0 8 -4 15 -10 15 -5 0
-10 -7 -10 -15z"/>
<path d="M5052 2552 c-66 -39 -71 -57 -5 -23 48 25 79 48 73 54 -3 3 -33 -11
-68 -31z"/>
<path d="M45 2525 c-22 -8 -41 -15 -42 -15 -6 0 -3 -30 2 -30 4 0 20 7 37 16
51 26 137 22 202 -10 66 -32 109 -87 186 -238 54 -103 69 -171 56 -240 -5 -30
-12 -36 -55 -52 -27 -9 -92 -42 -144 -72 -135 -77 -179 -74 -243 13 -42 57
-44 59 -44 34 0 -38 105 -134 169 -156 63 -21 142 -15 199 14 113 58 175 208
138 333 -19 65 -125 271 -166 319 -65 80 -203 119 -295 84z m406 -629 c-48
-77 -143 -123 -229 -110 l-43 6 93 52 c99 55 190 97 197 91 2 -2 -6 -20 -18
-39z"/>
<path d="M1060 2478 c-62 -33 -16 -97 78 -109 147 -19 475 -3 517 25 34 22 33
59 -1 75 -41 18 -561 26 -594 9z m303 -15 c-46 -2 -120 -2 -165 0 -46 1 -9 3
82 3 91 0 128 -2 83 -3z m-256 -9 c-3 -3 -12 -4 -19 -1 -8 3 -5 6 6 6 11 1 17
-2 13 -5z m375 -21 c-73 -2 -190 -2 -260 0 -70 1 -10 3 133 3 143 0 200 -2
127 -3z m58 -33 c-98 -11 -423 -11 -440 0 -10 6 74 9 245 8 169 -1 237 -4 195
-8z"/>
<path d="M646 2438 c-27 -41 -35 -111 -38 -325 -2 -160 0 -215 10 -224 8 -9
12 -55 12 -156 0 -89 4 -143 10 -143 6 0 10 45 10 114 0 109 1 115 21 118 21
3 21 6 19 312 0 170 -3 313 -6 318 -9 14 -23 9 -38 -14z m26 -293 c-4 -216 -6
-247 -18 -230 -18 24 -20 408 -3 469 20 73 25 16 21 -239z"/>
<path d="M60 2423 c-38 -18 -49 -28 -37 -30 15 -4 15 -6 -5 -23 -38 -30 -14
-32 42 -4 29 15 77 28 109 31 81 8 99 -11 196 -206 44 -88 83 -160 87 -160 27
-3 -139 326 -184 364 -30 25 -37 27 -98 22 -36 -2 -74 -8 -85 -11 -11 -4 -3 2
17 12 48 24 56 32 32 32 -10 0 -44 -12 -74 -27z"/>
<path d="M4038 2416 c-37 -18 -74 -39 -83 -46 -28 -23 -55 -87 -55 -131 0 -34
6 -47 34 -74 39 -36 75 -47 119 -34 70 20 117 77 117 142 0 33 -41 151 -58
168 -4 4 -37 -8 -74 -25z m52 -15 c0 -6 -4 -13 -10 -16 -5 -3 -14 -25 -20 -48
-6 -24 -23 -52 -38 -64 -33 -28 -21 -43 14 -17 16 12 33 42 47 82 19 61 21 63
33 40 19 -33 17 -95 -3 -130 -10 -16 -39 -43 -65 -59 -43 -28 -49 -29 -75 -17
-87 42 -54 156 62 216 45 24 55 26 55 13z m18 -207 c-21 -19 -43 -34 -49 -34
-7 0 7 14 29 30 23 17 42 35 42 42 0 6 3 8 7 4 5 -4 -9 -23 -29 -42z"/>
<path d="M2302 2388 c-7 -7 -12 -24 -12 -39 0 -37 29 -47 52 -19 22 27 22 34
2 54 -19 19 -26 20 -42 4z m28 -48 c-19 -12 -35 3 -26 26 6 17 8 17 24 0 15
-15 15 -18 2 -26z"/>
<path d="M2449 2395 c-8 -8 3 -85 12 -85 12 0 12 77 0 84 -4 3 -10 4 -12 1z"/>
<path d="M2502 2358 c-12 -45 -9 -59 10 -40 7 7 17 8 30 1 12 -6 18 -6 18 0 0
16 -33 81 -41 81 -3 0 -11 -19 -17 -42z"/>
<path d="M2596 2375 c-12 -49 30 -85 62 -53 17 17 15 58 -3 65 -21 7 -33 -6
-16 -17 8 -4 11 -15 8 -24 -10 -26 -27 -18 -27 13 0 38 -16 48 -24 16z"/>
<path d="M2690 2390 c-10 -6 -11 -10 -2 -10 7 0 12 -14 12 -35 0 -19 5 -35 10
-35 6 0 10 13 10 29 0 16 3 36 6 45 7 18 -12 21 -36 6z"/>
<path d="M2855 2390 c-3 -5 1 -10 9 -10 9 0 16 5 16 10 0 6 -4 10 -9 10 -6 0
-13 -4 -16 -10z"/>
<path d="M2908 2393 c-20 -5 -31 -33 -22 -56 7 -19 39 -31 54 -22 15 9 2 25
-14 19 -8 -3 -17 0 -21 6 -10 16 14 40 33 33 15 -6 15 -5 3 10 -7 9 -14 16
-15 16 0 -1 -9 -3 -18 -6z"/>
<path d="M2960 2355 c0 -25 5 -45 10 -45 6 0 10 10 10 23 l1 22 18 -22 c11
-13 24 -23 30 -23 14 0 15 77 1 85 -5 3 -10 -3 -10 -14 0 -27 -16 -27 -30 -1
-18 33 -30 23 -30 -25z"/>
<path d="M2110 2370 c-8 -14 -8 -26 0 -40 11 -21 44 -27 55 -10 3 6 -3 10 -13
10 -28 0 -38 30 -12 37 26 7 26 23 0 23 -10 0 -24 -9 -30 -20z"/>
<path d="M2197 2384 c-12 -12 -8 -51 7 -63 8 -7 25 -9 41 -5 22 5 26 11 23 38
-3 26 -7 31 -33 34 -17 2 -34 0 -38 -4z m50 -20 c8 -21 -13 -42 -28 -27 -13
13 -5 43 11 43 6 0 13 -7 17 -16z"/>
<path d="M2375 2380 c-3 -5 -1 -10 4 -10 6 0 11 -13 11 -30 0 -44 17 -36 22
10 3 33 0 40 -14 40 -9 0 -20 -4 -23 -10z"/>
<path d="M2757 2358 c-6 -41 -2 -48 28 -48 30 0 36 10 29 49 -5 24 -12 31 -29
31 -18 0 -24 -7 -28 -32z"/>
<path d="M2850 2360 c-13 -8 -12 -10 3 -10 9 0 17 5 17 10 0 12 -1 12 -20 0z"/>
<path d="M3696 2340 c-31 -38 -32 -60 -5 -120 l20 -45 19 23 c10 12 26 43 36
68 16 42 16 49 3 73 -21 37 -42 37 -73 1z m14 -36 c-10 -43 -20 -56 -20 -25 0
21 16 61 24 61 2 0 0 -16 -4 -36z m40 6 c0 -33 -19 -80 -32 -80 -5 0 -7 8 -4
18 3 9 8 34 12 55 7 44 24 49 24 7z"/>
<path d="M190 2356 c0 -3 25 -37 55 -78 58 -76 105 -179 105 -227 0 -21 -10
-38 -35 -60 -103 -90 -188 -90 -269 0 -28 31 -46 45 -46 35 0 -21 66 -93 101
-112 63 -32 168 -1 246 72 33 31 35 37 29 76 -9 58 -65 170 -121 241 -38 48
-65 70 -65 53z"/>
<path d="M1777 2296 c-123 -44 -184 -149 -123 -211 31 -31 84 -40 151 -27 102
21 188 74 201 126 9 37 -14 85 -50 107 -37 23 -122 25 -179 5z m177 -26 c20
-20 -9 -45 -70 -57 -32 -6 -80 -22 -106 -34 -50 -23 -70 -20 -52 9 16 26 75
51 140 61 51 7 55 9 32 15 -35 10 -118 -10 -161 -38 -23 -16 -33 -31 -35 -54
-4 -39 2 -40 96 -7 39 14 81 25 92 25 11 0 36 6 55 14 27 12 33 12 29 1 -10
-24 -217 -88 -272 -83 -33 3 -37 6 -40 34 -3 26 4 37 40 68 23 20 63 43 88 51
49 16 146 13 164 -5z m-38 -135 c-57 -43 -198 -70 -236 -45 -11 7 -3 10 30 10
25 0 79 11 120 24 90 29 114 32 86 11z"/>
<path d="M50 2285 c0 -10 7 -15 18 -13 21 4 19 22 -2 26 -10 2 -16 -3 -16 -13z"/>
<path d="M3425 2250 c-12 -4 -26 -15 -33 -23 -7 -8 -21 -13 -30 -10 -22 5 -50
-24 -61 -63 -12 -45 5 -90 49 -125 26 -21 40 -41 40 -56 0 -33 26 -29 38 6 6
16 29 41 53 57 59 40 67 67 44 144 -23 75 -47 92 -100 70z m37 -33 c-9 -12
-24 -57 -37 -112 -7 -27 -8 -28 -15 -10 -5 11 -9 41 -9 67 -1 42 2 49 26 62
30 15 50 11 35 -7z m38 -37 c-1 -8 -14 -33 -31 -55 -34 -43 -34 -35 -2 53 15
41 33 42 33 2z m-113 -70 c11 -44 17 -82 13 -85 -4 -2 -22 11 -40 30 -25 26
-34 44 -34 69 0 32 17 66 34 66 4 0 16 -36 27 -80z m99 -38 c-36 -36 -40 -24
-8 24 22 34 28 38 30 21 2 -11 -7 -31 -22 -45z"/>
<path d="M4439 2228 c-24 -24 -38 -32 -59 -30 -62 7 -122 -60 -107 -118 5 -18
3 -19 -25 -4 -16 8 -37 13 -45 10 -22 -9 -8 -74 25 -108 28 -30 85 -46 105
-30 6 6 39 15 71 21 107 20 130 68 76 155 l-30 47 20 29 c39 55 14 78 -31 28z
m-74 -89 c-12 -23 -15 -44 -9 -85 3 -30 2 -54 -2 -54 -14 0 -54 76 -54 102 0
35 27 68 56 68 24 0 24 0 9 -31z m57 -4 c-2 -17 -14 -46 -25 -65 l-22 -35 -3
30 c-5 43 18 107 37 103 11 -2 15 -12 13 -33z m23 -53 c-17 -16 -17 -16 -11 8
3 14 6 32 7 40 0 9 5 6 11 -8 9 -19 8 -26 -7 -40z m27 -54 c-5 -5 -25 -8 -43
-6 l-34 3 40 28 c39 27 40 27 43 6 2 -12 -1 -26 -6 -31z m-196 5 c-10 -11 -56
8 -56 22 0 14 4 14 31 0 17 -9 28 -19 25 -22z m12 -28 c26 -8 30 -35 4 -35
-21 0 -62 27 -62 41 0 6 8 8 18 5 9 -2 27 -7 40 -11z"/>
<path d="M4320 2105 c0 -5 5 -17 10 -25 5 -8 10 -10 10 -5 0 6 -5 17 -10 25
-5 8 -10 11 -10 5z"/>
<path d="M107 2233 c-4 -3 -7 -12 -7 -20 0 -17 26 -17 33 1 8 21 -11 35 -26
19z"/>
<path d="M155 2230 c-3 -5 1 -10 9 -10 9 0 16 5 16 10 0 6 -4 10 -9 10 -6 0
-13 -4 -16 -10z"/>
<path d="M55 2220 c-7 -12 2 -30 16 -30 12 0 12 27 0 35 -5 3 -12 1 -16 -5z"/>
<path d="M0 2193 c0 -52 38 -139 83 -189 36 -39 49 -47 87 -51 56 -5 105 22
126 72 16 39 19 105 4 105 -5 0 -10 -14 -10 -31 0 -65 -52 -129 -105 -129 -54
0 -109 64 -155 181 -25 62 -29 69 -30 42z"/>
<path d="M4771 2184 c-26 -33 -27 -92 -5 -159 24 -70 14 -273 -16 -314 -24
-34 -38 -101 -40 -191 -3 -120 -9 -110 69 -110 l68 0 6 83 c12 148 9 179 -19
220 -24 36 -25 41 -19 150 6 93 11 121 33 162 45 89 28 185 -34 185 -12 0 -32
-12 -43 -26z m49 -73 c0 -17 -4 -33 -10 -36 -6 -4 -10 8 -10 29 0 20 5 36 10
36 6 0 10 -13 10 -29z m-53 -485 c-3 -7 -9 -34 -12 -60 -11 -69 -29 -72 -22
-3 3 31 8 61 12 67 9 15 28 12 22 -4z m34 1 c-1 -4 -1 -32 -1 -62 0 -30 -4
-55 -10 -55 -6 0 -10 29 -10 66 0 42 4 64 11 62 6 -2 10 -7 10 -11z m30 -97
c-9 -22 -10 -20 -10 20 -1 25 3 56 7 70 6 21 7 17 10 -20 2 -25 -1 -57 -7 -70z"/>
<path d="M194 2185 c-4 -9 -2 -21 3 -26 7 -7 12 -3 16 10 6 25 -11 39 -19 16z"/>
<path d="M2300 2178 c0 -8 29 -10 210 -15 154 -3 350 7 350 19 0 7 -93 9 -280
7 -154 -2 -280 -7 -280 -11z"/>
<path d="M126 2172 c-8 -13 11 -35 23 -28 16 10 14 36 -3 36 -8 0 -17 -4 -20
-8z"/>
<path d="M907 2173 c-8 -14 -27 -125 -27 -161 0 -25 8 -41 30 -60 l30 -26 0
-152 c0 -143 -2 -155 -25 -201 -18 -35 -27 -71 -31 -133 -8 -105 2 -120 75
-120 73 0 86 19 78 121 -4 51 -14 98 -27 125 -19 38 -22 64 -23 202 l-2 159
34 28 c33 28 33 30 27 86 -8 78 -33 139 -57 139 -10 0 -19 -6 -19 -12 0 -10
-3 -9 -9 1 -7 11 -9 11 -14 0 -4 -10 -6 -10 -6 -1 -1 13 -27 17 -34 5z m99
-125 c4 -42 3 -68 -3 -68 -10 0 -24 96 -22 159 l1 36 8 -29 c5 -16 12 -60 16
-98z m-37 -17 c2 -92 -5 -72 -12 34 -3 52 -2 77 3 60 4 -16 8 -59 9 -94z m-30
5 c1 -83 -5 -67 -12 29 -3 48 -2 70 3 55 4 -14 8 -52 9 -84z m57 -506 c7 -19
15 -62 19 -96 5 -50 4 -64 -10 -77 -21 -21 -78 -22 -95 -2 -14 17 -8 110 11
178 9 33 14 38 37 35 21 -2 30 -11 38 -38z"/>
<path d="M1380 2139 c-12 -21 -4 -99 9 -99 16 0 41 38 41 63 0 21 -22 57 -35
57 -3 0 -9 -9 -15 -21z m27 -46 c-3 -10 -5 -4 -5 12 0 17 2 24 5 18 2 -7 2
-21 0 -30z"/>
<path d="M92 2137 c-13 -15 1 -42 17 -33 13 9 15 33 2 40 -5 3 -13 0 -19 -7z"/>
<path d="M165 2121 c-3 -5 -1 -12 4 -16 14 -8 62 5 55 16 -7 12 -51 12 -59 0z"/>
<path d="M3833 2088 c-30 -34 -55 -74 -105 -168 l-46 -86 25 -2 c13 -1 33 -7
44 -13 16 -8 25 -7 40 7 23 21 25 12 3 -11 -15 -14 -15 -18 -2 -31 12 -13 20
-2 57 83 46 105 61 186 42 221 -15 28 -32 28 -58 0z m22 -146 c-9 -26 -23 -58
-31 -72 -10 -16 -13 -18 -8 -5 16 44 43 152 45 180 2 22 4 19 6 -13 2 -24 -3
-64 -12 -90z m-19 45 c-4 -23 -18 -64 -31 -92 -14 -27 -23 -41 -19 -30 3 11
15 58 27 104 21 85 34 95 23 18z m-51 -56 c-9 -28 -21 -53 -26 -56 -13 -8 -12
-4 12 59 27 69 37 66 14 -3z"/>
<path d="M135 2080 c-3 -6 1 -13 9 -16 8 -3 18 -15 22 -26 4 -13 9 -17 16 -10
7 7 4 19 -7 36 -18 28 -30 32 -40 16z"/>
<path d="M216 2083 c-12 -12 -6 -33 9 -33 8 0 15 6 15 14 0 17 -14 28 -24 19z"/>
<path d="M2450 1975 c-7 -17 -17 -25 -34 -25 -45 0 -126 -33 -168 -69 -29 -25
-49 -35 -68 -33 -33 4 -52 -18 -48 -55 2 -23 11 -30 48 -43 l45 -16 6 -64 c7
-79 31 -133 75 -166 18 -14 34 -35 36 -47 9 -65 368 -57 368 8 0 9 14 34 31
55 26 33 33 52 42 124 l10 84 43 11 c51 13 74 34 74 66 0 30 -32 49 -69 42
-21 -5 -33 1 -54 23 -29 30 -111 66 -177 76 -22 4 -37 11 -34 16 13 20 -19 38
-67 38 -44 0 -51 -3 -59 -25z m190 -86 c87 -39 96 -71 28 -100 -80 -34 -310
-7 -354 42 -19 21 -13 34 27 55 74 38 216 39 299 3z m-410 -95 l25 -15 -25 7
c-14 3 -29 10 -34 15 -16 14 6 10 34 -7z m620 7 c0 -13 -130 -59 -206 -72 -83
-14 -239 -6 -312 16 -30 9 -52 18 -50 20 2 2 26 -2 53 -10 126 -38 353 -24
453 28 54 28 62 30 62 18z m-330 -113 c95 0 165 9 214 28 17 6 18 1 14 -71 -3
-72 -6 -79 -35 -106 -18 -15 -52 -33 -75 -40 -57 -15 -174 -15 -220 0 -54 18
-101 78 -125 159 l-19 68 70 -19 c47 -12 107 -18 176 -19z m99 -239 c-32 -9
-179 -9 -201 -1 -10 4 37 7 104 7 66 0 110 -3 97 -6z"/>
<path d="M2646 1819 c-21 -5 -75 -13 -120 -18 l-81 -8 85 -2 c85 -1 154 11
165 29 7 11 4 11 -49 -1z"/>
<path d="M2528 1653 c-33 -2 -58 -9 -58 -15 0 -13 132 -4 171 11 21 9 19 10
-16 8 -22 0 -66 -2 -97 -4z"/>
<path d="M3098 1989 c-41 -24 -12 -68 61 -94 52 -18 51 -18 51 -4 0 27 -35 81
-61 94 -33 17 -29 17 -51 4z m52 -44 c14 -16 10 -18 -14 -9 -9 3 -16 10 -16
15 0 14 16 11 30 -6z"/>
<path d="M5072 1913 c-51 -48 -57 -92 -17 -119 37 -24 65 -10 65 32 0 31 -2
34 -24 28 -37 -9 -40 13 -6 47 47 47 30 58 -18 12z m17 -82 c9 -6 10 -11 2
-15 -13 -8 -31 1 -31 15 0 11 11 11 29 0z"/>
<path d="M1402 1920 c-18 -11 -46 -20 -62 -20 -16 0 -39 -4 -52 -9 -31 -12
-72 -70 -70 -100 1 -13 -7 -53 -18 -88 -28 -91 -27 -154 5 -191 52 -62 200
-99 267 -68 41 20 53 43 68 129 10 58 22 84 62 139 21 29 -10 96 -78 165 -33
35 -67 63 -75 63 -8 0 -29 -9 -47 -20z m66 -12 c7 -7 12 -20 12 -30 0 -10 6
-18 13 -18 6 0 27 -14 46 -32 30 -28 31 -32 16 -41 -28 -15 -134 -2 -194 24
-54 23 -54 23 -28 34 14 6 36 20 49 31 23 21 58 43 69 44 3 0 10 -5 17 -12z
m-135 -35 c-12 -2 -27 -11 -34 -20 -32 -38 93 -93 213 -93 65 0 68 -1 68 -24
0 -25 -6 -29 -66 -41 -45 -9 -209 34 -192 50 3 3 21 -1 41 -10 50 -21 140 -30
163 -17 16 9 9 11 -34 12 -62 0 -156 31 -189 62 -41 38 -22 89 32 86 18 -1 18
-1 -2 -5z m-57 -94 c19 -22 19 -22 -3 -8 -13 8 -23 17 -23 21 0 12 6 9 26 -13z
m-40 -90 c-19 -62 -19 -81 -5 -132 8 -31 18 -42 52 -58 23 -10 60 -18 82 -18
l40 1 -53 13 c-45 11 -102 38 -102 49 0 2 17 -5 38 -15 44 -21 132 -36 132
-21 0 5 -22 12 -48 16 -27 3 -57 13 -68 21 -17 13 -15 13 19 4 21 -6 48 -9 60
-6 24 4 24 3 -76 29 -47 11 -61 41 -48 100 5 22 13 44 18 49 6 6 33 -1 68 -17
38 -18 82 -29 127 -32 57 -4 68 -7 64 -21 -3 -9 -12 -47 -21 -86 -9 -38 -23
-77 -32 -87 -21 -23 -98 -24 -170 -1 -108 34 -129 83 -92 209 13 43 25 72 27
66 2 -6 -4 -34 -12 -63z"/>
<path d="M1425 1850 c-7 -12 2 -30 16 -30 12 0 12 27 0 35 -5 3 -12 1 -16 -5z"/>
<path d="M1492 1821 c2 -7 7 -12 11 -12 12 1 9 15 -3 20 -7 2 -11 -2 -8 -8z"/>
<path d="M3283 1848 c-31 -15 -65 -91 -54 -120 18 -45 55 -69 127 -79 46 -6
76 -16 91 -31 35 -33 40 -12 10 42 -17 31 -27 63 -27 90 0 34 -6 48 -34 76
-36 36 -70 43 -113 22z m86 -34 c36 -30 43 -74 12 -74 -23 0 -34 23 -18 39 9
9 8 11 -5 6 -11 -4 -21 1 -30 14 -7 12 -16 21 -20 21 -16 0 -7 -30 20 -61 l27
-34 -38 23 c-23 13 -37 17 -35 10 2 -7 23 -22 46 -33 23 -11 41 -23 42 -27 0
-14 -55 -8 -78 8 -23 16 -54 63 -33 50 7 -5 11 2 11 16 0 28 9 41 35 56 28 16
30 15 64 -14z"/>
<path d="M4168 1816 c-135 -7 -231 -15 -238 -22 -17 -17 -3 -38 46 -74 82 -59
142 -74 289 -73 227 1 390 61 371 136 -12 51 -45 53 -468 33z m433 -25 c36
-29 15 -41 -87 -51 -49 -4 -102 -11 -119 -14 -25 -5 -26 -5 -10 4 14 7 -22 9
-125 7 -188 -4 -244 6 -90 17 63 4 142 12 175 16 77 11 -187 2 -295 -10 -66
-8 -105 -1 -89 14 2 3 103 10 224 16 121 6 227 13 235 14 8 2 47 4 86 5 57 1
77 -3 95 -18z m-283 -78 c-26 -2 -71 -2 -100 0 -29 2 -8 3 47 3 55 0 79 -1 53
-3z"/>
<path d="M3655 1780 c-3 -11 -4 -24 0 -29 3 -6 -28 -78 -70 -160 -41 -83 -75
-163 -75 -179 0 -62 57 -96 110 -66 33 20 34 21 116 234 67 172 72 189 51 172
-9 -8 -27 -3 -66 19 -30 16 -55 29 -57 29 -1 0 -5 -9 -9 -20z m70 -52 c17 -8
25 -19 25 -37 0 -18 -3 -22 -9 -13 -8 14 -65 -92 -77 -146 -6 -26 -5 -26 8 -7
8 11 25 46 39 78 13 32 25 55 27 49 5 -16 -107 -266 -125 -280 -27 -19 -56
-10 -72 22 -13 27 -10 36 65 187 43 88 81 159 86 159 4 0 19 -5 33 -12z"/>
<path d="M1824 1745 c-28 -28 -28 -52 -2 -69 25 -15 69 4 88 37 14 26 14 29
-4 43 -29 21 -54 17 -82 -11z m61 -24 c-3 -6 -16 -16 -28 -22 -21 -11 -21 -10
2 15 23 25 40 29 26 7z"/>
<path d="M4974 1635 c-23 -35 -36 -109 -24 -139 12 -32 39 -39 111 -31 41 5
59 11 59 21 0 17 -87 17 -109 0 -38 -30 -49 76 -14 133 13 20 20 22 53 17 21
-3 45 -9 54 -12 9 -3 16 -1 16 5 0 16 -44 31 -90 31 -31 0 -43 -5 -56 -25z"/>
<path d="M0 1640 c0 -5 15 -10 33 -10 17 0 43 -4 57 -8 20 -6 14 -8 -29 -12
-34 -3 -56 -10 -59 -19 -4 -11 4 -13 37 -8 49 6 46 -8 -4 -17 -19 -4 -35 -11
-35 -16 0 -14 15 -12 55 4 52 22 42 8 -10 -15 -43 -19 -60 -39 -32 -39 25 1
95 39 111 61 36 52 7 89 -72 89 -29 0 -52 -4 -52 -10z"/>
<path d="M5020 1602 c0 -12 87 -28 97 -18 10 10 1 14 -49 21 -32 5 -48 4 -48
-3z"/>
<path d="M3021 1588 c-77 -22 -121 -77 -121 -150 0 -110 133 -165 250 -105 63
32 81 62 85 139 3 57 1 68 -18 86 -38 36 -129 50 -196 30z m145 -32 c15 -12
17 -18 8 -33 -14 -23 -207 -54 -226 -35 -14 14 3 37 47 64 37 22 142 25 171 4z
m40 -62 c-3 -8 -17 -19 -31 -24 -43 -16 -147 -30 -162 -21 -10 5 12 12 63 20
61 10 83 19 103 39 26 27 40 19 27 -14z m-1 -64 c-37 -41 -184 -69 -244 -47
-65 23 -47 34 66 40 59 3 119 10 133 15 14 6 34 11 44 11 18 1 18 0 1 -19z
m-22 -49 c-42 -39 -128 -59 -183 -42 -52 15 -52 32 -1 18 31 -8 53 -7 104 7
36 10 74 24 84 32 31 23 29 15 -4 -15z"/>
<path d="M3060 1543 c1 -18 18 -35 24 -24 4 6 4 16 1 21 -7 12 -25 13 -25 3z"/>
<path d="M3116 1543 c-11 -11 -6 -23 9 -23 8 0 15 4 15 9 0 13 -16 22 -24 14z"/>
<path d="M3000 1514 c0 -9 5 -14 12 -12 18 6 21 28 4 28 -9 0 -16 -7 -16 -16z"/>
<path d="M5015 1560 c4 -6 29 -10 57 -10 64 0 60 5 -10 13 -32 4 -50 2 -47 -3z"/>
<path d="M624 1532 c-45 -30 -46 -129 -3 -272 17 -58 35 -141 39 -185 5 -44
20 -111 34 -150 18 -50 26 -90 26 -141 0 -57 4 -74 19 -88 28 -26 41 -12 41
45 0 33 9 69 26 107 15 31 29 80 32 109 4 46 0 62 -37 134 l-41 82 0 121 c0
136 -9 182 -45 220 -24 26 -67 34 -91 18z m81 -47 c16 -16 25 -36 25 -57 2
-234 5 -260 45 -338 49 -96 49 -135 1 -250 l-36 -85 0 46 c0 26 -14 91 -31
145 -29 96 -30 101 -18 175 7 45 9 87 4 105 -5 16 -7 63 -6 105 2 53 -1 79
-10 84 -10 7 -11 -20 -7 -126 6 -148 4 -147 -43 35 -39 147 3 235 76 161z"/>
<path d="M5010 1520 c0 -5 25 -10 55 -10 30 0 55 5 55 10 0 6 -25 10 -55 10
-30 0 -55 -4 -55 -10z"/>
<path d="M4009 1432 c-60 -84 -66 -90 -113 -102 -78 -20 -120 -45 -167 -101
-53 -62 -97 -108 -127 -131 -27 -22 -28 -53 -2 -96 25 -40 75 -72 116 -72 39
0 142 66 182 118 53 68 66 102 68 185 l2 79 77 78 c58 60 76 85 73 102 -2 15
-11 24 -24 26 -17 2 -35 -16 -85 -86z m85 53 c-6 -16 -24 -21 -24 -7 0 11 11
22 21 22 5 0 6 -7 3 -15z m-194 -200 c37 -19 45 -46 24 -86 -22 -43 -98 -124
-142 -151 -40 -25 -28 -37 15 -14 35 18 106 91 126 131 9 17 16 23 17 15 0 -8
-13 -38 -30 -66 -28 -51 -81 -100 -136 -129 -27 -14 -29 -13 -71 26 -24 22
-54 44 -67 50 -23 11 -23 11 28 63 28 29 71 74 96 100 24 27 58 55 75 62 38
16 31 17 65 -1z m-221 -299 c19 -20 32 -36 27 -36 -17 0 -66 32 -80 52 -37 53
-3 42 53 -16z"/>
<path d="M3836 1163 c-25 -32 -46 -62 -46 -67 0 -15 59 44 82 82 34 56 12 47
-36 -15z"/>
<path d="M1843 1469 c-18 -5 -49 -25 -68 -45 -29 -29 -35 -42 -35 -77 0 -75
52 -117 145 -117 89 0 145 42 145 110 0 88 -97 155 -187 129z m77 -29 c11 -7
7 -9 -17 -7 -17 1 -29 5 -26 10 6 10 25 9 43 -3z m-75 -20 c-3 -5 -11 -10 -16
-10 -6 0 -7 5 -4 10 3 6 11 10 16 10 6 0 7 -4 4 -10z m68 -16 c11 -11 -3 -24
-18 -18 -8 4 -12 10 -9 15 6 11 18 12 27 3z m-58 -14 c3 -5 1 -10 -4 -10 -6 0
-11 5 -11 10 0 6 2 10 4 10 3 0 8 -4 11 -10z m125 0 c0 -6 -15 -19 -32 -30
-42 -26 -129 -28 -149 -3 -13 15 -12 15 8 5 12 -7 38 -12 58 -12 39 0 105 26
105 41 0 5 2 9 5 9 3 0 5 -5 5 -10z"/>
<path d="M157 1409 c-19 -26 -11 -58 18 -71 45 -20 47 -120 4 -212 -18 -39
-33 -90 -36 -124 -6 -69 20 -219 42 -241 20 -20 173 -28 233 -11 60 16 66 36
58 200 -6 119 -10 142 -35 195 -24 52 -27 70 -23 120 3 41 10 66 23 78 22 20
25 57 7 75 -8 8 -55 12 -144 12 -123 0 -134 -2 -147 -21z m233 -123 l0 -43
-61 -7 c-104 -10 -99 -12 -99 44 l0 50 80 0 80 0 0 -44z m26 -145 c13 -29 24
-56 24 -59 0 -4 -51 -7 -112 -7 l-113 0 -3 -82 c-3 -74 -5 -83 -22 -83 -45 0
-38 109 15 215 l35 70 -5 -43 c-4 -28 -2 -41 5 -37 5 3 10 21 10 40 0 39 2 40
81 39 l60 -1 25 -52z m28 -123 c10 -77 11 -107 4 -108 -5 0 -55 0 -113 0
l-105 0 0 69 c0 46 4 71 13 74 6 3 53 6 104 6 l92 1 5 -42z"/>
<path d="M276 1282 c-3 -6 -1 -14 5 -17 15 -10 25 3 12 16 -7 7 -13 7 -17 1z"/>
<path d="M310 1146 c0 -9 7 -16 16 -16 17 0 14 22 -4 28 -7 2 -12 -3 -12 -12z"/>
<path d="M4470 1333 c0 -67 -4 -79 -52 -145 -10 -14 -10 -22 -2 -35 14 -22 27
-15 29 14 0 12 12 35 26 50 23 26 24 34 21 106 -4 95 -22 103 -22 10z"/>
<path d="M4525 1261 c4 -12 -4 -30 -21 -50 -36 -43 -23 -52 15 -10 33 36 34
39 25 63 -9 23 -27 20 -19 -3z"/>
<path d="M4804 1235 c-3 -8 -25 -23 -49 -35 -52 -25 -75 -67 -75 -139 0 -50
-1 -51 -30 -51 -42 0 -72 -32 -64 -68 11 -45 33 -62 80 -62 l43 0 25 -83 c14
-46 34 -91 44 -100 24 -22 87 -22 184 2 128 30 140 46 130 167 -4 55 -2 64 12
64 13 0 16 11 14 63 l-1 62 -6 -49 c-7 -61 -26 -71 -35 -19 -4 21 -9 46 -12
56 -4 13 1 17 25 17 22 0 31 5 31 16 0 13 -7 15 -35 10 -29 -6 -35 -4 -35 11
0 28 -37 81 -71 102 -17 11 -51 22 -75 26 -24 3 -46 10 -49 16 -9 14 -45 11
-51 -6z m143 -66 c28 -10 73 -47 73 -59 0 -24 -163 -70 -248 -70 -71 0 -82 11
-60 56 29 62 159 102 235 73z m119 -296 c5 -69 3 -97 -6 -108 -16 -19 -118
-51 -192 -60 -49 -6 -58 -5 -76 15 -11 12 -22 31 -25 43 -9 42 -58 228 -64
242 -4 12 3 14 40 9 54 -8 170 16 242 50 l50 23 12 -61 c6 -34 15 -103 19
-153z m-376 108 c0 -5 3 -23 6 -40 6 -28 4 -31 -19 -31 -19 0 -31 8 -42 30
-19 36 -19 38 3 43 30 8 52 7 52 -2z"/>
<path d="M4980 1048 c0 -21 40 -262 45 -266 3 -3 7 -3 10 0 8 7 -35 252 -45
262 -6 6 -10 7 -10 4z"/>
<path d="M4931 983 c5 -27 14 -63 20 -81 8 -25 8 -37 0 -45 -6 -6 -11 -20 -11
-31 1 -20 1 -20 11 -2 10 17 13 15 30 -20 21 -43 21 -43 -19 118 -27 109 -47
148 -31 61z"/>
<path d="M4863 990 c3 -14 11 -54 18 -90 13 -69 43 -140 59 -140 16 0 12 30
-4 36 -9 4 -23 43 -37 102 -12 54 -26 102 -32 107 -6 7 -8 2 -4 -15z"/>
<path d="M4810 993 c0 -15 39 -199 46 -217 7 -18 20 -21 29 -6 3 6 2 10 -4 10
-5 0 -21 48 -35 106 -23 96 -36 135 -36 107z"/>
<path d="M4766 928 c25 -108 54 -198 65 -198 6 0 9 6 7 13 -2 6 -19 65 -38
130 -36 124 -58 159 -34 55z"/>
<path d="M4260 1213 c-13 -9 -51 -20 -83 -24 -68 -8 -102 -33 -118 -89 -23
-75 45 -156 123 -147 77 10 135 81 145 182 6 54 -7 95 -30 95 -7 0 -24 -8 -37
-17z m-45 -52 c-3 -5 -30 -21 -60 -35 -30 -14 -55 -30 -55 -37 0 -7 -3 -9 -6
-6 -12 12 19 39 71 62 60 28 58 27 50 16z m55 -95 c0 -8 -12 -28 -26 -45 -28
-33 -88 -51 -107 -32 -8 8 -2 11 25 11 39 0 83 29 93 60 7 23 15 26 15 6z
m-120 -10 c0 -3 -4 -8 -10 -11 -5 -3 -10 -1 -10 4 0 6 5 11 10 11 6 0 10 -2
10 -4z"/>
<path d="M4392 1218 c-15 -15 -16 -65 -1 -74 7 -4 9 0 5 12 -3 11 1 31 9 47
14 28 8 36 -13 15z"/>
<path d="M3250 1176 c-131 -58 -227 -106 -254 -127 -38 -30 -36 -79 6 -114 28
-23 38 -26 75 -21 99 13 302 154 319 221 6 23 2 33 -20 52 -15 13 -32 23 -39
23 -7 0 -46 -15 -87 -34z m120 -1 c22 -26 2 -63 -63 -115 -98 -80 -248 -146
-267 -117 -3 4 29 22 70 40 80 35 244 136 236 145 -3 3 -34 -12 -68 -33 -78
-47 -78 -47 -78 -42 0 3 33 24 73 48 87 52 82 48 75 55 -7 7 -141 -71 -220
-127 -68 -49 -131 -60 -136 -23 -3 23 40 49 225 134 117 54 134 58 153 35z"/>
<path d="M1223 1095 c-53 -25 -76 -41 -88 -65 -22 -43 -14 -69 40 -119 40 -37
50 -41 96 -41 44 0 55 4 84 33 42 42 53 97 29 156 -12 32 -26 47 -50 57 -18 8
-35 14 -36 13 -2 0 -35 -15 -75 -34z m102 5 c3 -5 1 -10 -4 -10 -6 0 -11 5
-11 10 0 6 2 10 4 10 3 0 8 -4 11 -10z m-55 -26 c0 -10 -57 -89 -80 -109 -21
-19 -22 -19 -36 0 -19 25 -18 29 12 64 26 31 104 65 104 45z m60 -11 c0 -10
-10 -36 -23 -58 -25 -44 -91 -85 -109 -67 -7 7 -4 13 9 21 11 5 37 35 58 66
38 55 65 71 65 38z m37 -80 c-2 -16 -4 -5 -4 22 0 28 2 40 4 28 2 -13 2 -35 0
-50z m-37 -54 c-15 -34 -39 -43 -88 -33 l-37 7 33 10 c35 11 91 67 94 95 0 9
3 2 5 -17 3 -18 -1 -46 -7 -62z"/>
<path d="M1548 1109 c-14 -7 -18 -23 -18 -62 0 -29 3 -63 7 -76 5 -21 10 -23
46 -18 27 4 50 16 71 36 30 30 30 32 16 59 -9 15 -24 29 -35 31 -11 2 -26 12
-33 22 -15 21 -29 23 -54 8z m40 -38 c2 -13 10 -21 20 -20 35 3 43 -1 40 -23
-3 -25 -61 -63 -83 -54 -16 6 -21 78 -9 111 9 22 28 14 32 -14z"/>
<path d="M2323 1086 c-19 -9 -34 -24 -37 -38 -11 -55 -14 -128 -5 -133 5 -4 9
-33 9 -66 0 -81 21 -101 143 -129 137 -33 203 -37 227 -15 11 10 20 28 20 41
0 13 5 26 10 29 6 3 8 16 5 28 -4 16 0 25 17 32 15 7 23 19 23 35 0 19 -6 26
-30 31 l-30 7 30 1 c99 4 38 90 -112 158 -71 33 -217 43 -270 19z m272 -51
c153 -75 160 -110 20 -101 -131 9 -305 66 -305 101 0 19 17 28 70 36 75 12
140 1 215 -36z m-230 -78 c21 -11 25 -16 12 -17 -29 0 -77 29 -77 47 0 14 2
15 18 1 9 -9 31 -23 47 -31z m103 -62 c53 -8 130 -15 170 -15 74 0 93 -12 46
-30 -78 -30 -384 34 -384 80 0 5 16 2 35 -6 20 -8 80 -21 133 -29z m25 28 c-7
-2 -19 -2 -25 0 -7 3 -2 5 12 5 14 0 19 -2 13 -5z m44 -9 c-3 -3 -12 -4 -19
-1 -8 3 -5 6 6 6 11 1 17 -2 13 -5z m-47 -83 c56 -12 118 -21 136 -21 19 0 34
-5 34 -11 0 -16 -100 -5 -222 25 -98 23 -130 18 -62 -10 45 -19 208 -54 252
-54 33 0 38 -5 23 -29 -11 -17 -109 -11 -220 14 -89 21 -121 47 -121 99 l0 35
38 -13 c22 -8 85 -23 142 -35z"/>
<path d="M2342 1034 c1 -9 9 -19 16 -22 9 -3 13 2 10 14 -1 9 -9 19 -16 22 -9
3 -13 -2 -10 -14z"/>
<path d="M2460 1040 c0 -5 5 -10 10 -10 6 0 10 5 10 10 0 6 -4 10 -10 10 -5 0
-10 -4 -10 -10z"/>
<path d="M2515 1009 c-10 -15 1 -23 20 -15 9 3 13 10 10 16 -8 13 -22 13 -30
-1z"/>
<path d="M2570 995 c0 -9 5 -15 11 -13 6 2 11 8 11 13 0 5 -5 11 -11 13 -6 2
-11 -4 -11 -13z"/>
<path d="M2642 971 c2 -7 7 -12 11 -12 12 1 9 15 -3 20 -7 2 -11 -2 -8 -8z"/>
<path d="M0 1079 c0 -8 8 -19 19 -26 10 -6 21 -27 25 -45 8 -46 -10 -156 -28
-177 -28 -31 -18 -48 10 -19 39 39 58 175 31 227 -16 31 -57 60 -57 40z"/>
<path d="M3315 1019 c-55 -47 -75 -69 -62 -69 9 0 111 90 120 105 12 22 7 19
-58 -36z"/>
<path d="M1863 981 c4 -34 2 -40 -17 -45 -66 -16 -106 -119 -72 -184 27 -53
49 -61 169 -60 122 0 147 11 167 74 27 80 -19 159 -98 169 -67 9 -89 20 -107
55 -8 16 -23 30 -32 30 -12 0 -15 -8 -10 -39z m41 -40 c-6 -6 -24 19 -24 34 1
6 7 1 15 -9 8 -11 12 -22 9 -25z m-45 -58 c-11 -22 -18 -55 -18 -83 1 -25 4
-34 6 -20 2 14 11 45 20 69 19 54 34 37 26 -31 -4 -35 -1 -54 11 -73 15 -23
15 -26 1 -31 -20 -8 -68 12 -92 38 -40 44 -16 135 42 159 11 4 21 8 21 8 1 1
-7 -16 -17 -36z m86 -3 c21 -40 21 -140 0 -140 -21 0 -32 34 -33 108 -2 68 9
78 33 32z m112 6 c24 -21 28 -32 28 -74 0 -64 -23 -92 -74 -92 -20 0 -31 4
-25 8 45 31 56 98 24 150 -19 31 -19 32 0 32 10 0 32 -11 47 -24z m-53 -71 c0
-19 -5 -40 -12 -47 -9 -9 -12 -3 -12 30 0 24 -7 57 -16 75 l-16 32 28 -27 c20
-20 28 -37 28 -63z"/>
<path d="M3 960 c0 -30 2 -43 4 -27 2 15 2 39 0 55 -2 15 -4 2 -4 -28z"/>
<path d="M4086 854 c-70 -25 -85 -55 -46 -94 51 -51 130 -7 130 71 0 34 -3 39
-22 38 -13 0 -41 -7 -62 -15z m44 -73 c-10 -19 -50 -30 -50 -14 0 3 12 22 28
42 25 33 27 34 30 14 2 -12 -2 -31 -8 -42z m-55 19 c-13 -15 -22 -17 -29 -10
-12 12 8 30 33 30 11 0 10 -5 -4 -20z"/>
<path d="M1115 726 c-146 -25 -172 -36 -181 -71 -10 -40 5 -77 46 -114 l39
-34 -28 -36 c-38 -48 -51 -91 -51 -165 0 -73 22 -126 76 -186 56 -61 104 -83
202 -88 103 -6 155 12 210 72 106 115 95 279 -27 388 -48 43 -53 74 -17 108
37 34 43 76 15 106 -24 26 -77 44 -124 43 -16 0 -89 -11 -160 -23z m202 -2
c-3 -3 -12 -4 -19 -1 -8 3 -5 6 6 6 11 1 17 -2 13 -5z m-72 -9 c-5 -3 -57 -14
-114 -25 -161 -32 -168 -41 -97 -118 24 -26 45 -52 47 -59 3 -8 9 -9 18 -4 11
7 3 20 -33 58 -69 74 -72 70 91 103 111 22 184 25 214 10 25 -14 24 -29 -6
-70 -26 -36 -32 -79 -14 -97 7 -7 -5 -6 -30 3 -52 18 -110 9 -157 -22 -22 -15
-49 -24 -74 -24 -34 0 -39 3 -45 29 -3 16 -23 42 -44 59 -21 17 -42 43 -45 58
-11 44 16 61 134 83 93 17 182 26 155 16z m73 -226 c29 -10 91 -84 79 -95 -3
-3 -8 4 -12 15 -12 40 -63 71 -115 71 -66 0 -111 -23 -143 -74 -53 -84 -44
-181 22 -247 87 -87 219 -65 279 46 10 19 16 56 16 100 1 60 -3 77 -28 120
-19 31 -23 45 -12 36 9 -8 29 -35 44 -60 22 -38 27 -58 27 -111 -1 -189 -189
-294 -365 -205 -27 14 -60 39 -74 57 -32 43 -47 127 -35 193 13 69 37 98 89
107 23 4 65 19 93 33 55 27 88 31 135 14z m-312 -61 c-14 -24 -30 -69 -35 -99
l-10 -54 4 58 c3 54 48 157 62 144 3 -3 -7 -25 -21 -49z m221 -10 c-3 -8 -6
-5 -6 6 -1 11 2 17 5 13 3 -3 4 -12 1 -19z m52 -47 c1 -17 5 -22 17 -17 57 22
84 15 50 -14 -18 -14 -10 -40 13 -41 9 -1 5 -4 -9 -8 -20 -6 -27 -3 -33 16 -5
13 -15 23 -23 23 -12 0 -12 -4 -4 -20 11 -21 5 -44 -10 -35 -4 3 -6 14 -3 25
3 11 0 20 -6 20 -21 0 -25 -33 -8 -61 l16 -28 -46 3 c-25 2 -49 10 -54 17 -17
26 -9 30 20 8 33 -25 63 -23 38 2 -10 10 -12 21 -6 30 13 20 11 29 -6 29 -8 0
-15 7 -15 16 0 13 -3 14 -14 5 -11 -9 -16 -9 -21 0 -8 12 6 25 47 40 15 6 30
20 34 32 7 22 7 22 15 2 4 -11 8 -31 8 -44z m46 29 c3 -5 -1 -10 -9 -10 -9 0
-16 5 -16 10 0 6 4 10 9 10 6 0 13 -4 16 -10z m92 -102 c-3 -7 -5 -2 -5 12 0
14 2 19 5 13 2 -7 2 -19 0 -25z m-280 0 c-3 -8 -6 -5 -6 6 -1 11 2 17 5 13 3
-3 4 -12 1 -19z m73 -3 c0 -8 -4 -15 -9 -15 -13 0 -22 16 -14 24 11 11 23 6
23 -9z m-63 -37 c-3 -8 -6 -5 -6 6 -1 11 2 17 5 13 3 -3 4 -12 1 -19z m203 3
c0 -12 -20 -25 -27 -18 -7 7 6 27 18 27 5 0 9 -4 9 -9z m43 -44 c-25 -43 -78
-77 -120 -77 -43 0 -89 23 -104 53 -10 17 -4 15 26 -12 33 -29 44 -33 80 -29
54 7 90 31 112 78 10 21 20 34 21 29 2 -5 -5 -24 -15 -42z m-416 21 c-3 -8 -6
-5 -6 6 -1 11 2 17 5 13 3 -3 4 -12 1 -19z m333 -23 c0 -8 -2 -15 -4 -15 -2 0
-6 7 -10 15 -3 8 -1 15 4 15 6 0 10 -7 10 -15z m-30 -23 c0 -4 -9 -8 -19 -8
-15 0 -17 3 -9 13 10 12 28 9 28 -5z"/>
<path d="M1180 573 c-14 -3 -29 -9 -35 -14 -12 -12 136 0 150 12 9 9 -68 10
-115 2z"/>
<path d="M1233 348 c2 -7 10 -13 17 -13 7 0 15 6 18 13 2 7 -5 12 -18 12 -13
0 -20 -5 -17 -12z"/>
<path d="M3067 730 c-78 -14 -155 -41 -173 -61 -12 -14 -21 -16 -41 -8 -13 5
-38 9 -54 9 -26 0 -30 -3 -27 -22 2 -18 16 -27 61 -43 49 -17 57 -23 57 -45 1
-35 33 -101 64 -129 14 -14 26 -33 26 -43 0 -10 11 -24 25 -30 20 -9 28 -8 42
5 15 13 27 14 73 5 30 -6 116 -8 191 -6 77 3 144 1 153 -4 23 -13 66 -1 66 17
0 9 18 35 40 58 42 46 60 83 60 123 0 21 10 29 55 49 80 36 70 80 -14 59 -29
-8 -43 -5 -76 13 -74 40 -151 54 -320 58 -88 2 -182 0 -208 -5z m372 -29 c18
-3 -70 -6 -194 -6 -124 0 -221 1 -216 3 56 19 324 21 410 3z m81 -21 c18 -12
2 -12 -25 0 -13 6 -15 9 -5 9 8 0 22 -4 30 -9z m-202 -7 c-32 -2 -84 -2 -115
0 -32 2 -6 3 57 3 63 0 89 -1 58 -3z m-210 -10 c-10 -2 -26 -2 -35 0 -10 3 -2
5 17 5 19 0 27 -2 18 -5z m472 -8 c14 -8 21 -14 15 -14 -5 0 -21 6 -35 14 -14
8 -20 14 -15 14 6 0 21 -6 35 -14z m-72 -32 c29 -9 51 -21 49 -27 -11 -33
-392 -52 -535 -27 -76 14 -87 26 -40 48 69 34 422 38 526 6z m-498 -74 c79
-13 410 -10 507 5 90 13 100 5 15 -13 -144 -30 -506 -22 -582 13 -19 9 -26 14
-15 10 11 -3 45 -10 75 -15z m379 -55 c8 -7 -214 -2 -264 6 -30 4 13 6 105 2
85 -2 157 -6 159 -8z m54 9 c-7 -2 -21 -2 -30 0 -10 3 -4 5 12 5 17 0 24 -2
18 -5z m94 1 c-3 -3 -12 -4 -19 -1 -8 3 -5 6 6 6 11 1 17 -2 13 -5z m-292 -32
c138 -6 145 -7 85 -14 -73 -9 -249 7 -265 24 -7 8 -4 9 10 3 11 -4 88 -10 170
-13z m24 -33 c102 -1 110 -2 66 -11 -54 -9 -188 -3 -245 12 -32 9 -30 9 14 5
27 -3 101 -6 165 -6z m148 5 c-3 -3 -12 -4 -19 -1 -8 3 -5 6 6 6 11 1 17 -2
13 -5z m-97 -38 c95 0 115 -2 85 -9 -49 -11 -279 -2 -320 12 -23 7 -13 8 40 3
39 -4 126 -7 195 -6z"/>
<path d="M4415 698 c-11 -6 -73 -56 -138 -110 l-118 -99 -46 30 c-85 57 -90
54 -283 -136 -162 -160 -170 -170 -170 -207 0 -30 7 -45 34 -72 20 -20 44 -34
58 -34 23 0 380 220 422 260 10 10 20 38 23 64 l6 46 139 86 c76 47 146 96
154 110 15 22 15 26 0 49 -18 27 -48 32 -81 13z m53 -27 c3 -9 0 -11 -7 -6
-13 7 -68 -25 -138 -82 -73 -58 -47 -27 34 42 75 64 101 75 111 46z m-12 -29
c-6 -10 -106 -73 -106 -67 0 4 102 75 108 75 2 0 1 -4 -2 -8z m-186 -96 c0 -2
-8 -10 -17 -17 -16 -13 -17 -12 -4 4 13 16 21 21 21 13z m-184 -35 c76 -46
106 -128 62 -168 -47 -42 -372 -243 -393 -243 -23 0 -75 51 -75 72 0 39 316
358 355 358 11 0 34 -9 51 -19z"/>
<path d="M4009 447 c-37 -29 -119 -92 -183 -141 -64 -50 -116 -94 -116 -99 0
-12 30 8 166 109 123 92 212 169 204 178 -3 3 -35 -18 -71 -47z"/>
<path d="M3902 305 c-94 -69 -174 -130 -177 -135 -17 -28 28 1 173 109 141
107 194 151 180 151 -3 0 -82 -56 -176 -125z"/>
<path d="M4080 366 c-8 -8 -68 -53 -133 -99 -64 -47 -113 -88 -109 -91 16 -10
272 173 272 194 0 14 -13 12 -30 -4z"/>
<path d="M2217 542 c-24 -26 -21 -72 7 -142 39 -96 40 -108 7 -236 -17 -65
-31 -129 -31 -141 0 -27 17 -31 23 -5 4 16 5 16 6 0 0 -10 7 -18 14 -18 10 0
13 14 9 55 -2 31 3 92 12 138 9 45 17 93 19 107 2 14 5 5 8 -22 2 -25 1 -44
-2 -42 -7 4 -29 -113 -29 -157 0 -48 10 -79 25 -79 8 0 16 8 18 18 4 16 5 16
6 0 1 -15 11 -18 56 -18 30 0 54 3 53 8 0 4 4 18 11 32 11 24 11 24 7 -7 -5
-31 -4 -33 24 -33 20 0 30 5 30 15 0 32 -31 86 -77 137 -41 45 -43 49 -15 29
40 -28 89 -103 98 -148 5 -27 11 -33 32 -33 24 0 25 2 19 51 -8 68 -42 123
-117 188 -65 57 -71 67 -101 175 -38 133 -72 172 -112 128z m58 -42 c19 -37
19 -46 0 -30 -11 9 -15 9 -15 1 0 -7 -4 -10 -10 -6 -5 3 -3 -16 5 -42 28 -90
26 -98 -5 -18 -31 80 -33 125 -5 125 8 0 21 -13 30 -30z m31 -142 c13 -39 32
-83 41 -97 14 -22 14 -24 1 -13 -15 12 -88 186 -88 207 1 18 22 -26 46 -97z
m164 -198 c30 -43 18 -37 -16 7 -15 20 -23 33 -16 29 6 -3 21 -20 32 -36z
m-173 -7 c-3 -10 -5 -4 -5 12 0 17 2 24 5 18 2 -7 2 -21 0 -30z m40 -5 c-3 -7
-5 -2 -5 12 0 14 2 19 5 13 2 -7 2 -19 0 -25z m48 -28 c3 -5 -1 -10 -9 -10 -9
0 -16 5 -16 10 0 6 4 10 9 10 6 0 13 -4 16 -10z m-58 -52 c-2 -13 -4 -5 -4 17
-1 22 1 32 4 23 2 -10 2 -28 0 -40z m-30 -15 c-3 -10 -5 -2 -5 17 0 19 2 27 5
18 2 -10 2 -26 0 -35z m95 -5 c-9 -9 -15 -9 -24 0 -10 10 -10 15 2 22 20 12
38 -6 22 -22z"/>
<path d="M283 541 c-60 -5 -90 -12 -110 -27 -40 -30 -70 -78 -78 -125 -4 -23
-16 -50 -27 -61 -22 -22 -20 -39 8 -53 15 -8 19 -22 21 -75 3 -78 23 -111 77
-124 26 -7 109 -5 262 7 227 17 274 27 288 62 9 24 7 75 -4 113 -6 24 -6 39 3
52 9 15 8 23 -6 38 -9 10 -17 30 -17 43 0 45 -42 112 -85 136 -35 20 -53 22
-145 21 -58 0 -142 -4 -187 -7z m322 -40 c33 -19 60 -60 70 -107 l6 -31 -103
-7 c-57 -4 -181 -14 -276 -23 -118 -10 -177 -12 -184 -5 -14 14 -1 81 22 120
31 51 68 63 214 71 154 9 210 5 251 -18z m95 -176 c0 -12 -13 -15 -57 -14 -32
1 -75 -2 -97 -6 -30 -6 -38 -5 -34 6 4 13 24 16 166 27 14 1 22 -4 22 -13z
m-575 -25 c17 -7 15 -9 -12 -9 -18 -1 -33 4 -33 9 0 12 17 12 45 0z m315 1 c0
-5 -20 -6 -44 -4 -23 3 -52 1 -62 -5 -14 -7 -26 -6 -44 4 -23 12 -17 13 63 14
48 0 87 -4 87 -9z m-200 -16 c-13 -16 -55 -20 -64 -6 -9 14 5 21 42 21 29 0
33 -2 22 -15z m336 -10 c64 26 142 13 89 -15 -19 -10 -31 -11 -43 -3 -13 7
-23 6 -39 -4 -33 -22 -151 -38 -168 -23 -8 7 -22 9 -32 5 -10 -4 -47 -9 -83
-11 -36 -2 -77 -6 -92 -10 -19 -4 -36 0 -58 16 -40 29 -26 48 18 23 26 -15 36
-16 64 -6 18 7 76 15 128 19 52 4 101 10 109 14 7 4 26 1 42 -7 24 -12 33 -12
65 2z m114 -45 c-20 -13 -33 -13 -25 0 3 6 14 10 23 10 15 0 15 -2 2 -10z
m-27 -24 c20 -1 36 -5 34 -11 -5 -13 -86 -21 -297 -29 -154 -6 -171 -5 -140 7
19 8 83 17 142 21 58 4 119 11 135 16 15 5 42 6 58 3 17 -4 47 -7 68 -7z
m-523 -16 c13 -8 13 -10 -2 -10 -9 0 -20 5 -23 10 -8 13 5 13 25 0z m549 -46
c-32 -31 -476 -59 -534 -32 -14 6 -25 19 -25 30 0 14 8 18 38 18 20 0 46 -7
56 -15 11 -8 40 -15 65 -15 50 0 263 17 351 29 63 8 70 6 49 -15z"/>
<path d="M562 425 c12 -27 28 -34 28 -12 0 14 -20 37 -32 37 -4 0 -2 -11 4
-25z"/>
<path d="M265 420 c-8 -13 4 -32 16 -25 12 8 12 35 0 35 -6 0 -13 -4 -16 -10z"/>
<path d="M370 415 c0 -8 7 -15 15 -15 8 0 15 7 15 15 0 8 -7 15 -15 15 -8 0
-15 -7 -15 -15z"/>
<path d="M2602 498 c-19 -19 -14 -46 12 -63 32 -21 66 -5 66 30 0 37 -52 59
-78 33z m56 -30 c3 -13 -3 -18 -22 -18 -20 0 -26 5 -26 21 0 15 5 20 22 17 13
-2 24 -11 26 -20z"/>
<path d="M1763 436 c-38 -17 -62 -51 -70 -102 -6 -34 -4 -37 15 -32 18 5 20 2
15 -27 -7 -43 21 -102 58 -120 62 -33 173 -1 211 60 55 91 -18 213 -122 203
-28 -2 -37 0 -36 12 1 20 -32 23 -71 6z m47 -25 c0 -11 -91 -93 -97 -87 -8 8
27 65 49 80 25 18 48 21 48 7z m140 -51 c27 -25 31 -35 28 -72 -2 -24 -8 -43
-14 -43 -11 0 -124 126 -124 139 0 3 18 6 39 6 29 0 47 -7 71 -30z m-23 -118
c24 -34 12 -35 -40 -2 -48 30 -77 73 -77 112 1 20 8 16 51 -32 28 -30 57 -65
66 -78z m-53 -16 c41 -26 46 -32 28 -34 -32 -5 -91 27 -107 59 -8 15 -15 43
-15 61 l1 33 21 -44 c15 -31 37 -53 72 -75z m-75 -12 c13 -14 37 -28 53 -31
20 -4 26 -9 19 -16 -16 -16 -86 9 -105 38 -9 13 -16 43 -15 67 l1 43 11 -38
c7 -21 23 -49 36 -63z"/>
<path d="M4811 424 c-26 -19 -44 -78 -37 -119 6 -28 3 -36 -21 -53 -20 -15
-25 -24 -17 -32 8 -8 18 -5 37 10 25 20 28 20 49 6 28 -20 90 -21 127 -2 27
14 81 82 81 103 0 5 -11 22 -24 36 -14 15 -26 34 -28 44 -3 15 -15 18 -75 19
-47 1 -79 -4 -92 -12z m28 -56 c-5 -28 -15 -59 -24 -67 -13 -14 -15 -10 -15
32 0 34 6 53 20 67 11 11 22 20 24 20 1 0 -1 -23 -5 -52z m105 43 c4 -5 -12
-24 -34 -41 -44 -35 -55 -22 -19 24 21 26 43 34 53 17z m31 -101 c3 -5 2 -10
-4 -10 -5 0 -13 5 -16 10 -3 6 -2 10 4 10 5 0 13 -4 16 -10z m-36 -13 c30 -13
31 -14 13 -30 -26 -23 -71 -31 -107 -17 l-30 12 28 24 c32 27 51 30 96 11z"/>
<path d="M4531 356 c-30 -17 -145 -80 -255 -141 -195 -107 -231 -136 -178
-143 22 -3 281 95 447 171 104 47 100 45 92 54 -4 3 -46 -11 -94 -32 -180 -77
-426 -175 -430 -172 -2 2 93 58 212 123 209 116 275 157 265 167 -3 3 -29 -9
-59 -27z"/>
<path d="M2716 298 c-21 -29 -20 -51 2 -71 23 -21 41 -21 70 -1 24 17 30 62
10 82 -20 20 -65 14 -82 -10z m72 -30 c2 -16 -1 -28 -7 -28 -6 0 -11 12 -11
26 0 14 -4 23 -10 19 -5 -3 -10 -18 -10 -33 0 -24 -1 -25 -16 -10 -13 13 -14
20 -4 37 17 32 54 24 58 -11z"/>
<path d="M3047 204 c-4 -4 -7 -17 -7 -28 0 -17 -14 -28 -65 -50 -65 -28 -162
-115 -137 -124 6 -2 25 12 41 30 33 38 125 92 144 85 7 -2 -13 -28 -48 -60
-33 -31 -55 -57 -50 -57 21 0 74 40 106 79 22 28 36 38 43 31 17 -17 -12 -54
-62 -80 -29 -16 -40 -26 -30 -28 9 -2 29 5 45 15 22 14 25 14 16 2 -11 -14 -9
-16 17 -17 21 0 33 6 41 20 13 24 7 89 -14 143 -15 39 -27 51 -40 39z m24
-181 c-12 -20 -14 -14 -5 12 4 9 9 14 11 11 3 -2 0 -13 -6 -23z"/>
<path d="M4406 54 c-21 -25 -35 -48 -32 -51 7 -8 30 12 67 59 44 55 12 49 -35
-8z"/>
<path d="M4779 43 c-7 -16 -15 -31 -17 -35 -2 -5 2 -8 8 -8 14 0 49 40 50 58
0 22 -27 12 -41 -15z"/>
</g>
</svg>